<svg width="47" height="42" viewBox="0 0 47 42" fill="none" xmlns="http://www.w3.org/2000/svg">
<path d="M13.1211 23.0113C9.09802 19.2863 4.90736 15.8081 0.549072 12.5766C4.26479 12.0737 7.88277 11.8083 11.5007 11.5988C10.5788 7.8691 9.89426 4.1953 9.20979 0.521484C13.5253 3.5629 17.6796 6.82671 21.656 10.2997C22.495 13.7816 22.9309 17.3485 22.9551 20.93C20.0496 21.9777 16.2361 22.1453 13.1211 23.0113Z" fill="white"/>
<path d="M13.1211 23.5282C13.0566 23.5291 12.9925 23.5173 12.9326 23.4933C12.8726 23.4693 12.818 23.4337 12.7719 23.3885C8.76286 19.7426 4.54426 16.2504 0.199946 12.9957C0.119199 12.933 0.0588523 12.8478 0.0265289 12.7508C-0.00579445 12.6538 -0.00864962 12.5495 0.018344 12.4509C0.042727 12.3496 0.0970991 12.2581 0.174368 12.1884C0.251638 12.1186 0.348197 12.0737 0.451375 12.0597C4.16709 11.5569 7.74318 11.2915 10.8163 11.1099C9.96423 7.58972 9.30766 4.12544 8.67906 0.63322C8.65643 0.530458 8.66572 0.423233 8.70566 0.325882C8.7456 0.228531 8.81424 0.145695 8.90252 0.0884351C8.98949 0.0307694 9.09155 0 9.1959 0C9.30025 0 9.40231 0.0307694 9.48928 0.0884351C13.8097 3.13523 17.9731 6.39881 21.9635 9.86664C22.0544 9.94773 22.1179 10.0551 22.1451 10.174C22.2289 10.6489 22.3267 11.1378 22.4105 11.5708C23.1259 14.6244 23.4775 17.7519 23.4581 20.8881C23.4505 20.994 23.412 21.0954 23.3475 21.1798C23.2829 21.2642 23.1952 21.3279 23.0949 21.363C21.3229 21.8997 19.5103 22.2921 17.675 22.5364C16.1848 22.7471 14.7067 23.0362 13.2469 23.4025L13.1211 23.5282ZM1.94605 12.9398C5.85734 15.9291 9.68484 19.114 13.3307 22.4246C14.7276 22.0754 16.1245 21.8379 17.5912 21.6144C19.2465 21.3843 20.8845 21.0436 22.4943 20.5947C22.4777 17.665 22.1356 14.7463 21.4745 11.8921L21.2231 10.621C17.0324 7.03095 13.7358 4.33496 10.048 1.69485C10.6486 4.90769 11.2913 8.20434 12.1014 11.4731C12.1294 11.6228 12.0995 11.7776 12.0176 11.9061C11.9708 11.9665 11.9118 12.0164 11.8444 12.0525C11.777 12.0886 11.7027 12.1101 11.6265 12.1156C8.67904 12.2833 5.35447 12.5068 1.87623 12.9398H1.94605Z" fill="#07040C"/>
<path d="M45.8778 41.0871C45.7485 41.0835 45.6247 41.034 45.5285 40.9475C32.1883 28.8085 18.1356 17.2004 3.77559 6.29072C3.72025 6.2506 3.67342 6.19989 3.63781 6.14156C3.60219 6.08322 3.57855 6.01839 3.56815 5.95083C3.55776 5.88328 3.56084 5.81434 3.57728 5.748C3.59371 5.68165 3.62309 5.61922 3.66381 5.56433C3.7474 5.45164 3.87226 5.37662 4.01099 5.35568C4.14972 5.33474 4.29108 5.36958 4.4042 5.45258C18.7921 16.3343 32.8728 28.0123 46.227 40.1652C46.2764 40.2134 46.3157 40.2709 46.3425 40.3345C46.3693 40.3981 46.3831 40.4664 46.3831 40.5354C46.3831 40.6044 46.3693 40.6727 46.3425 40.7363C46.3157 40.7998 46.2764 40.8574 46.227 40.9056C46.1357 41.0054 46.012 41.0698 45.8778 41.0871Z" fill="#07040C"/>
</svg>
