<svg width="52" height="53" viewBox="0 0 52 53" fill="none" xmlns="http://www.w3.org/2000/svg">
<path d="M23.3309 52.1242C23.2008 52.1246 23.0753 52.076 22.9795 51.9879C22.8837 51.8999 22.8246 51.7789 22.8141 51.6492L22.1576 45.1956L16.0671 43.7987L12.6867 48.6739C12.6455 48.7335 12.5915 48.7833 12.5287 48.8196C12.4659 48.8558 12.3958 48.8776 12.3235 48.8834C12.2487 48.8954 12.1721 48.8903 12.0996 48.8685C12.027 48.8467 11.9603 48.8089 11.9044 48.7577L4.50093 41.871C4.40766 41.7703 4.35582 41.6381 4.35582 41.5009C4.35582 41.3636 4.40766 41.2314 4.50093 41.1307L8.69159 36.521L6.38669 29.8997L0.896941 28.7263C0.827795 28.7118 0.762345 28.6832 0.704682 28.6423C0.647019 28.6015 0.598382 28.5493 0.561702 28.4889C0.513287 28.363 0.513287 28.2236 0.561702 28.0978L3.14591 16.9227C3.16186 16.8503 3.19406 16.7826 3.24003 16.7245C3.28601 16.6664 3.34457 16.6195 3.41132 16.5874C3.47771 16.5597 3.54896 16.5455 3.62089 16.5455C3.69281 16.5455 3.76398 16.5597 3.83037 16.5874L8.37025 18.1799L12.8683 12.5923L9.32021 7.27017C9.27211 7.13942 9.27211 6.99581 9.32021 6.86506C9.33369 6.79367 9.36333 6.72632 9.40692 6.6682C9.45051 6.61008 9.50688 6.56275 9.57164 6.52982L18.5676 1.27751C18.634 1.24985 18.7051 1.23561 18.7771 1.23561C18.849 1.23561 18.9202 1.24985 18.9866 1.27751C19.1212 1.32769 19.2312 1.42776 19.2939 1.55691L22.0877 7.50762L28.8207 7.40987L31.4748 0.57907C31.4974 0.509078 31.5355 0.445093 31.5863 0.391884C31.6371 0.338675 31.6992 0.297611 31.7681 0.271754C31.8986 0.222404 32.0427 0.222404 32.1733 0.271754L40.9736 4.46241C41.1012 4.5301 41.1966 4.64568 41.239 4.78371C41.2699 4.84678 41.2859 4.91604 41.2859 4.98625C41.2859 5.05645 41.2699 5.12576 41.239 5.18882L37.8865 11.2792L41.6581 17.1182L47.6088 15.1067C47.6719 15.0758 47.7412 15.0598 47.8114 15.0598C47.8816 15.0598 47.9508 15.0758 48.0139 15.1067C48.1414 15.1744 48.2369 15.2899 48.2793 15.428L51.1988 25.5554C51.2382 25.6888 51.2237 25.8323 51.1584 25.9551C51.0931 26.0778 50.9822 26.1701 50.8496 26.2119L43.8652 28.2514L43.2366 33.3081L48.9778 36.8283C49.0397 36.8665 49.0929 36.9174 49.1338 36.9775C49.1747 37.0377 49.2025 37.1059 49.2153 37.1775C49.2275 37.2504 49.2251 37.3249 49.2083 37.3968C49.1915 37.4688 49.1607 37.5366 49.1175 37.5966L42.3147 46.3551C42.2687 46.4119 42.2113 46.4586 42.1464 46.4922C42.0815 46.5259 42.0104 46.5457 41.9375 46.5506C41.864 46.5568 41.79 46.5475 41.7202 46.5235C41.6505 46.4994 41.5865 46.4611 41.5324 46.4109L36.8388 41.885L32.1872 45.0559L33.0114 50.9648C33.025 51.0342 33.022 51.1058 33.0026 51.1738C32.9831 51.2418 32.9478 51.3042 32.8996 51.3559C32.8601 51.4161 32.8062 51.4655 32.7428 51.4997C32.6794 51.5338 32.6085 51.5517 32.5365 51.5515L23.4706 52.1521L23.3309 52.1242ZM15.8436 42.7511H15.9554L22.7582 44.2318C22.8652 44.2572 22.9616 44.3152 23.0341 44.3978C23.1067 44.4804 23.1518 44.5835 23.1633 44.6928L23.8618 51.0067L31.8659 50.4759L31.0697 44.8045C31.0558 44.7081 31.0694 44.6098 31.109 44.5208C31.1485 44.4319 31.2124 44.3559 31.2932 44.3016L36.5595 40.7116C36.6531 40.638 36.7687 40.5979 36.8877 40.5979C37.0068 40.5979 37.1224 40.638 37.216 40.7116L41.7978 45.1258L47.8882 37.2892L42.3007 33.9088C42.2123 33.8572 42.1412 33.7805 42.0965 33.6885C42.0517 33.5965 42.0353 33.4933 42.0493 33.392L42.7756 27.6507C42.7875 27.5511 42.8283 27.4571 42.8928 27.3802C42.9573 27.3033 43.0427 27.2468 43.1388 27.2177L49.8997 25.2202L47.2736 16.1124L41.4625 18.0821C41.3518 18.1254 41.2294 18.1282 41.1169 18.0898C41.0043 18.0515 40.909 17.9745 40.8479 17.8725L36.6572 11.4329C36.6094 11.3501 36.5842 11.2561 36.5842 11.1605C36.5842 11.0649 36.6094 10.9709 36.6572 10.8881L39.884 5.02116L32.1034 1.36132L29.5331 8.01052C29.4951 8.10654 29.43 8.1894 29.3456 8.24894C29.2613 8.30849 29.1613 8.34212 29.0581 8.34576L21.6268 8.44355C21.5278 8.44525 21.4305 8.41852 21.3463 8.36652C21.2621 8.31452 21.1946 8.23945 21.1518 8.15021L18.358 2.40899L10.3399 7.08857L13.7763 12.285C13.8442 12.373 13.8811 12.4811 13.8811 12.5923C13.8811 12.7035 13.8442 12.8116 13.7763 12.8996L8.81726 19.018C8.74859 19.1029 8.65539 19.1645 8.5504 19.1945C8.44541 19.2245 8.33375 19.2214 8.2306 19.1856L3.90028 17.663L1.56742 27.7206L6.81973 28.8381C6.90903 28.8587 6.9917 28.9015 7.06007 28.9625C7.12844 29.0236 7.18034 29.1009 7.2109 29.1873L9.71129 36.3673C9.73798 36.4581 9.74179 36.5541 9.72229 36.6468C9.70279 36.7394 9.66056 36.8258 9.59952 36.8981L5.70223 41.452L12.2816 47.5704L15.4804 42.9746C15.5216 42.9136 15.5753 42.8622 15.6379 42.8236C15.7005 42.7851 15.7707 42.7604 15.8436 42.7511ZM25.7615 33.4339C24.3104 33.4924 22.8751 33.1155 21.64 32.3515C20.4049 31.5876 19.4266 30.4717 18.8309 29.1473C18.2352 27.8228 18.0493 26.3504 18.2972 24.9195C18.5452 23.4885 19.2156 22.1645 20.2221 21.1177C21.2287 20.0709 22.5255 19.3491 23.9456 19.0453C25.3657 18.7414 26.8442 18.8694 28.191 19.4127C29.5378 19.9561 30.6912 20.8899 31.5029 22.0941C32.3147 23.2983 32.7475 24.7178 32.7459 26.17C32.7663 27.1061 32.6017 28.037 32.2613 28.9093C31.921 29.7815 31.4117 30.578 30.7627 31.2529C30.1138 31.9278 29.3379 32.4679 28.4797 32.8422C27.6214 33.2164 26.6977 33.4175 25.7615 33.4339ZM25.7615 19.9539C24.5166 19.8868 23.2802 20.1947 22.2122 20.8379C21.1443 21.481 20.2938 22.4298 19.7709 23.5615C19.2479 24.6932 19.0764 25.9558 19.2787 27.186C19.481 28.4162 20.0478 29.5573 20.9057 30.4619C21.7635 31.3666 22.8731 31.993 24.0908 32.2603C25.3085 32.5275 26.5784 32.4233 27.7362 31.9611C28.894 31.4988 29.8866 30.6999 30.5855 29.6675C31.2843 28.6351 31.6574 27.4167 31.6564 26.17C31.6977 24.5644 31.1001 23.008 29.9949 21.8425C28.8897 20.677 27.3671 19.9978 25.7615 19.9539Z" fill="#07040C"/>
</svg>
