<svg width="46" height="44" viewBox="0 0 46 44" fill="none" xmlns="http://www.w3.org/2000/svg">
<path d="M37.4471 18.2172L35.7149 12.4202L39.3468 7.18183L30.3927 0.839966C29.2473 2.76767 28.0879 4.6814 26.9285 6.6091C26.8742 6.71677 26.7981 6.81193 26.705 6.88849C26.5627 6.96043 26.4025 6.98954 26.244 6.9723L20.2653 6.83261C19.2875 4.91888 18.3237 3.11689 17.2481 1.37078C17.1814 1.22482 17.0615 1.10988 16.9128 1.0495C16.7512 1.03525 16.5905 1.08546 16.4658 1.18919L9.35562 5.54748C9.2911 5.58257 9.23415 5.63004 9.188 5.68716C9.15417 5.77204 9.14285 5.86422 9.15509 5.95476C9.16732 6.04531 9.20269 6.13116 9.25782 6.20402C10.1498 7.82087 11.218 9.33405 12.4428 10.716C11.404 12.678 10.2567 14.5807 9.0064 16.4153C8.75729 16.8781 8.35834 17.2426 7.87492 17.4489C7.45366 17.5302 7.01811 17.4914 6.61777 17.3372C4.94151 16.8623 3.2932 16.3035 1.65884 15.7028C0.272588 19.1031 0.0130622 22.8583 0.918453 26.417C3.03953 26.3414 5.15341 26.1267 7.24639 25.7744L10.9341 32.3118L7.97271 37.2987L14.7616 42.3415L18.2817 37.0752L24.4979 37.2009L26.9005 42.7885L36.1759 39.5058L33.9409 33.8205L37.2655 28.2329L43.5654 27.7161L43.7609 19.8795L37.4471 18.2172ZM26.7469 21.1786C26.7303 21.5528 26.6351 21.9193 26.4675 22.2542C26.3848 22.4684 26.282 22.6743 26.1602 22.8689C25.9184 23.242 25.6323 23.5844 25.3081 23.8886C24.6574 24.4973 23.8931 24.972 23.0591 25.2855C22.7083 25.4064 22.3488 25.4998 21.9835 25.5649C21.6782 25.6137 21.3669 25.6137 21.0615 25.5649C20.866 25.5649 20.6564 25.481 20.4609 25.481C21.0196 25.481 20.4609 25.481 20.1955 25.481C19.1908 25.1552 18.3504 24.4548 17.8487 23.5254C17.5263 22.9961 17.3347 22.3975 17.2899 21.7793C17.2762 21.2176 17.3859 20.6597 17.6113 20.1449C17.9042 19.4077 18.2691 18.7012 18.7008 18.0356C19.1763 17.2574 19.8328 16.6056 20.6145 16.1359C20.9864 15.9351 21.3971 15.8163 21.8187 15.7874C22.2404 15.7585 22.6632 15.8201 23.0591 15.9683C23.3722 15.8159 23.7309 15.7861 24.0649 15.8844C24.6389 16.0754 25.1505 16.4181 25.5456 16.8762C25.9214 17.3417 26.2187 17.8654 26.4256 18.4268C26.5007 18.608 26.5615 18.7948 26.6072 18.9855C26.6139 19.0972 26.6139 19.2091 26.6072 19.3208C26.6072 19.4884 26.6072 19.67 26.677 19.8376V19.7259C26.677 19.5722 26.677 19.5722 26.677 19.7259C26.677 19.8795 26.677 20.0751 26.677 20.2567C26.684 20.345 26.684 20.4338 26.677 20.5221C26.7274 20.7372 26.7509 20.9577 26.7469 21.1786Z" fill="white"/>
<path d="M10.1657 25.1457C10.1194 25.1327 10.0802 25.1019 10.0566 25.06C10.033 25.0181 10.0271 24.9685 10.04 24.9222C11.814 18.734 13.9093 12.5598 16.2561 6.58112C16.2635 6.55779 16.2759 6.53637 16.2925 6.51836C16.309 6.50034 16.3294 6.48618 16.3521 6.47686C16.3747 6.46754 16.3991 6.46329 16.4235 6.46441C16.448 6.46553 16.4719 6.47199 16.4936 6.48334C16.5347 6.5018 16.5675 6.53491 16.5856 6.57623C16.6037 6.61754 16.6057 6.6641 16.5913 6.70684C14.2306 12.6715 12.1493 18.8458 10.3752 25.02C10.3726 25.0435 10.3646 25.0661 10.3518 25.086C10.339 25.1059 10.3218 25.1226 10.3016 25.1347C10.2813 25.1469 10.2585 25.1542 10.2349 25.1561C10.2113 25.158 10.1876 25.1545 10.1657 25.1457Z" fill="#07040C"/>
<path d="M12.8896 26.1516C12.8433 26.1386 12.8041 26.1078 12.7806 26.0659C12.757 26.024 12.751 25.9744 12.7638 25.9281C14.4053 20.0757 16.5554 14.3779 19.1896 8.90008C19.1962 8.87404 19.2084 8.84979 19.2256 8.82908C19.2427 8.80837 19.2642 8.79172 19.2886 8.78032C19.3129 8.76893 19.3394 8.76308 19.3663 8.76319C19.3932 8.76329 19.4197 8.76936 19.4439 8.78095C19.4681 8.79254 19.4895 8.80937 19.5065 8.83022C19.5234 8.85107 19.5355 8.87541 19.542 8.90151C19.5484 8.9276 19.5489 8.95478 19.5435 8.98111C19.5381 9.00743 19.527 9.03223 19.5108 9.05373C16.8792 14.5118 14.7336 20.1911 13.0991 26.0259C13.0965 26.0494 13.0885 26.072 13.0757 26.0919C13.0629 26.1118 13.0458 26.1285 13.0255 26.1406C13.0052 26.1528 12.9824 26.1601 12.9588 26.162C12.9353 26.1639 12.9116 26.1604 12.8896 26.1516Z" fill="#07040C"/>
<path d="M11.8699 37.3547C11.8466 37.3473 11.8251 37.3349 11.8071 37.3183C11.7891 37.3017 11.775 37.2814 11.7657 37.2588C11.7564 37.2361 11.7521 37.2117 11.7532 37.1873C11.7543 37.1628 11.7608 37.1389 11.7722 37.1172L16.2701 26.0259C16.2775 26.0026 16.2899 25.9812 16.3065 25.9632C16.3231 25.9452 16.3434 25.931 16.366 25.9217C16.3886 25.9124 16.4131 25.9081 16.4375 25.9092C16.462 25.9104 16.4858 25.9168 16.5075 25.9282C16.5278 25.9372 16.5461 25.9502 16.5613 25.9664C16.5766 25.9826 16.5884 26.0016 16.5962 26.0224C16.604 26.0432 16.6076 26.0653 16.6068 26.0875C16.6059 26.1097 16.6007 26.1315 16.5913 26.1517L12.0934 37.3268C12.0663 37.3583 12.0284 37.3787 11.9871 37.3839C11.9458 37.389 11.904 37.3786 11.8699 37.3547Z" fill="#07040C"/>
<path d="M17.7927 34.9799H17.7229C17.7014 34.9722 17.6816 34.9602 17.6649 34.9446C17.6482 34.929 17.6348 34.9102 17.6257 34.8892C17.6165 34.8683 17.6118 34.8457 17.6117 34.8229C17.6116 34.8 17.6161 34.7774 17.6251 34.7564L20.1395 28.3866C20.1472 28.3651 20.1592 28.3453 20.1748 28.3286C20.1903 28.3119 20.2092 28.2986 20.2301 28.2894C20.251 28.2803 20.2736 28.2755 20.2964 28.2754C20.3193 28.2753 20.3419 28.2798 20.3629 28.2888C20.3858 28.2944 20.4071 28.3053 20.4252 28.3205C20.4432 28.3356 20.4576 28.3548 20.467 28.3764C20.4765 28.398 20.4808 28.4215 20.4797 28.4451C20.4786 28.4686 20.4721 28.4916 20.4607 28.5123L17.9463 34.8821C17.9329 34.9115 17.9112 34.9363 17.8839 34.9537C17.8567 34.971 17.825 34.9801 17.7927 34.9799Z" fill="#07040C"/>
<path d="M22.4859 13.9707C22.4648 13.9643 22.4452 13.9538 22.4281 13.9398C22.4111 13.9258 22.3969 13.9086 22.3865 13.8892C22.3761 13.8697 22.3697 13.8484 22.3676 13.8264C22.3655 13.8044 22.3677 13.7823 22.3742 13.7612L23.5755 9.84991C23.5885 9.80364 23.6193 9.76442 23.6612 9.74085C23.7031 9.71728 23.7527 9.71129 23.799 9.72418C23.8427 9.74005 23.8787 9.77208 23.8995 9.81366C23.9202 9.85524 23.9243 9.90321 23.9108 9.94769L22.7094 13.859C22.6935 13.9027 22.6615 13.9386 22.62 13.9594C22.5784 13.9802 22.5304 13.9842 22.4859 13.9707Z" fill="#07040C"/>
<path d="M27.2216 14.9905C27.1805 14.972 27.1477 14.9389 27.1296 14.8976C27.1115 14.8563 27.1095 14.8098 27.1238 14.767C28.3466 11.3993 29.7454 8.09807 31.3145 4.87705C31.3288 4.86183 31.3462 4.84971 31.3654 4.84142C31.3846 4.83314 31.4053 4.82886 31.4263 4.82886C31.4472 4.82886 31.4678 4.83314 31.487 4.84142C31.5063 4.84971 31.5236 4.86183 31.5379 4.87705C31.5582 4.8861 31.5765 4.89909 31.5917 4.91527C31.607 4.93144 31.6188 4.95048 31.6266 4.97127C31.6344 4.99207 31.638 5.01421 31.6372 5.0364C31.6364 5.05859 31.6311 5.0804 31.6218 5.10056C30.0712 8.29943 28.6743 11.61 27.4311 14.9486C27.4051 14.9768 27.3708 14.9961 27.3331 15.0036C27.2955 15.0112 27.2565 15.0066 27.2216 14.9905Z" fill="#07040C"/>
<path d="M22.4865 35.0357H22.4027C22.3824 35.0266 22.3641 35.0136 22.3489 34.9975C22.3337 34.9813 22.3218 34.9623 22.314 34.9415C22.3062 34.9207 22.3026 34.8985 22.3035 34.8763C22.3043 34.8541 22.3096 34.8323 22.3189 34.8122L33.7594 10.0454C33.7666 10.0237 33.7786 10.0039 33.7945 9.98742C33.8104 9.97096 33.8297 9.95825 33.8511 9.95022C33.8726 9.94218 33.8955 9.93903 33.9183 9.941C33.9411 9.94296 33.9631 9.94999 33.9829 9.96157C34.0044 9.96926 34.0241 9.98127 34.0408 9.99686C34.0575 10.0125 34.0708 10.0313 34.08 10.0522C34.0891 10.0731 34.0939 10.0957 34.094 10.1186C34.0942 10.1414 34.0896 10.1641 34.0807 10.1851L22.6402 34.9519C22.6247 34.9786 22.6023 35.0006 22.5752 35.0154C22.5481 35.0302 22.5174 35.0372 22.4865 35.0357Z" fill="#07040C"/>
<path d="M27.054 36.0415H26.9841C26.9421 36.0204 26.91 35.9839 26.8944 35.9396C26.8788 35.8953 26.8809 35.8467 26.9003 35.804L34.5693 18.9575C34.5903 18.9156 34.6268 18.8834 34.6711 18.8678C34.7153 18.8521 34.764 18.8543 34.8067 18.8737C34.827 18.8828 34.8453 18.8958 34.8605 18.9119C34.8757 18.9281 34.8876 18.9471 34.8954 18.9679C34.9032 18.9887 34.9067 19.0109 34.9059 19.0331C34.905 19.0553 34.8999 19.0771 34.8905 19.0972L27.2077 35.9437C27.1942 35.973 27.1725 35.9979 27.1452 36.0153C27.118 36.0326 27.0863 36.0417 27.054 36.0415Z" fill="#07040C"/>
<path d="M35.2399 27.6042H35.1561C35.1276 27.5712 35.1118 27.529 35.1118 27.4854C35.1118 27.4418 35.1276 27.3997 35.1561 27.3667L38.5365 21.1086C38.5521 21.093 38.5706 21.0806 38.591 21.0721C38.6114 21.0637 38.6332 21.0593 38.6553 21.0593C38.6773 21.0593 38.6992 21.0637 38.7196 21.0721C38.7399 21.0806 38.7584 21.093 38.774 21.1086C38.8135 21.132 38.8427 21.1695 38.8556 21.2136C38.8686 21.2577 38.8644 21.305 38.8439 21.3461L35.4633 27.6042C35.4314 27.6291 35.3921 27.6426 35.3517 27.6426C35.3112 27.6426 35.2718 27.6291 35.2399 27.6042Z" fill="#07040C"/>
<path d="M3.74013 23.6931C3.69817 23.672 3.66598 23.6355 3.65036 23.5913C3.63473 23.547 3.63689 23.4984 3.65632 23.4556L5.72369 19.0973C5.7303 19.0713 5.74264 19.0471 5.75975 19.0263C5.77687 19.0056 5.79834 18.989 5.82268 18.9776C5.84701 18.9662 5.87356 18.9603 5.90043 18.9605C5.9273 18.9606 5.95378 18.9666 5.97802 18.9782C6.00226 18.9898 6.02365 19.0066 6.0406 19.0275C6.05755 19.0483 6.06966 19.0727 6.07607 19.0988C6.08247 19.1249 6.08298 19.1521 6.0776 19.1784C6.07222 19.2047 6.06107 19.2295 6.04495 19.251L3.89377 23.5953C3.88193 23.6259 3.86063 23.6518 3.83298 23.6694C3.80534 23.687 3.77283 23.6953 3.74013 23.6931Z" fill="#07040C"/>
<path d="M12.4426 7.26566H12.3588C12.3193 7.24224 12.2901 7.20473 12.2771 7.16067C12.2642 7.11661 12.2684 7.06926 12.289 7.02819L13.8255 4.23441C13.8489 4.1949 13.8865 4.16573 13.9306 4.15277C13.9746 4.13981 14.0219 4.14402 14.063 4.16457C14.0786 4.18014 14.091 4.19865 14.0995 4.21902C14.1079 4.2394 14.1123 4.26125 14.1123 4.28331C14.1123 4.30537 14.1079 4.32721 14.0995 4.34758C14.091 4.36796 14.0786 4.38647 14.063 4.40204L12.5404 7.19582C12.5176 7.23038 12.4827 7.25526 12.4426 7.26566Z" fill="#07040C"/>
<path d="M26.8304 43.2216C26.7252 43.2189 26.6231 43.1858 26.5363 43.1263C26.4495 43.0668 26.3819 42.9834 26.3415 42.8863C25.6917 41.0812 24.8732 39.3414 23.8969 37.6899C21.9193 37.9069 19.9238 37.9069 17.9462 37.6899C17.3874 38.7096 16.8426 39.7433 16.2699 40.8469L15.2642 42.7466C15.202 42.8589 15.1012 42.9448 14.9804 42.9885C14.8597 43.0322 14.7273 43.0306 14.6076 42.9841C11.6584 41.8222 9.07347 39.8931 7.12031 37.3966C7.05337 37.3054 7.01724 37.1953 7.01724 37.0823C7.01724 36.9692 7.05337 36.8591 7.12031 36.768C8.16798 35.3711 9.22965 33.8066 10.3891 31.9627C9.04101 30.148 7.92422 28.1725 7.06447 26.0818L5.66758 26.3751C4.2707 26.6964 2.70616 27.0177 1.09974 27.2412C0.971019 27.2591 0.840231 27.2292 0.732098 27.1571C0.623965 27.085 0.546025 26.9758 0.513067 26.8501C-0.373942 23.0543 -0.106417 19.0801 1.28134 15.4375C1.32014 15.3127 1.40602 15.2079 1.52075 15.1454C1.63547 15.0828 1.77004 15.0673 1.89597 15.1022L8.36356 16.7226C9.31307 14.7569 10.3862 12.8533 11.5764 11.0233C10.4003 9.48578 9.3359 7.86589 8.39144 6.17614C8.33698 6.07398 8.31841 5.9565 8.33867 5.84252C8.35893 5.72854 8.41688 5.62467 8.50322 5.54754C10.9933 3.35333 13.8241 1.57934 16.8845 0.295246C17.0038 0.240394 17.1394 0.232967 17.2639 0.274475C17.3885 0.315983 17.4925 0.403322 17.555 0.518753C18.598 2.3713 19.5308 4.28369 20.3488 6.24599C22.5007 5.89947 24.6877 5.82438 26.8583 6.02248C27.8222 4.15065 28.8279 2.25089 30.0851 0.23937C30.1569 0.130165 30.2664 0.0512549 30.3927 0.0177489C30.519 -0.0157571 30.6532 -0.00150123 30.7696 0.0577781C33.1967 1.32823 35.4778 2.85991 37.5724 4.62559C38.1172 5.10053 38.676 5.58945 39.1929 6.02248C39.5062 6.26222 39.7438 6.58714 39.8773 6.95839C39.906 7.10367 39.8759 7.2544 39.7935 7.37746C39.3186 8.08987 38.8297 8.77435 38.3966 9.52867C37.6982 10.5344 36.9998 11.5681 36.2315 12.7136C36.874 14.334 37.5445 15.9823 38.1312 17.6446C40.3704 17.8179 42.5701 18.3313 44.6547 19.1672C44.748 19.1991 44.8291 19.2593 44.8866 19.3394C44.9442 19.4195 44.9754 19.5155 44.9759 19.6142C45.1917 22.5993 44.763 25.5958 43.7188 28.4006C43.6826 28.5034 43.614 28.5917 43.5233 28.6522C43.4326 28.7127 43.3247 28.742 43.2159 28.7359H42.5175C40.8333 28.6382 39.1448 28.6382 37.4607 28.7359C36.6634 30.6082 35.5899 32.3504 34.2758 33.9043C35.316 35.6623 36.2489 37.4816 37.0696 39.3522C37.1192 39.4715 37.1224 39.6051 37.0784 39.7266C37.0345 39.8482 36.9466 39.9488 36.8321 40.0087C33.8369 41.6909 30.5365 42.7594 27.1237 43.1517L26.8304 43.2216ZM24.1623 36.6003C24.251 36.5983 24.3386 36.619 24.4168 36.6606C24.4951 36.7022 24.5615 36.7632 24.6094 36.8378C25.6326 38.5147 26.4888 40.2879 27.1656 42.132C30.1456 41.7172 33.027 40.771 35.6727 39.3382C34.8779 37.5521 33.9825 35.8125 32.9907 34.1278C32.93 34.0394 32.8975 33.9347 32.8975 33.8275C32.8975 33.7203 32.93 33.6156 32.9907 33.5272C34.4046 31.9086 35.542 30.0679 36.3571 28.0793C36.3876 27.9866 36.4451 27.9051 36.5223 27.8454C36.5995 27.7856 36.6928 27.7504 36.7902 27.7441C38.6271 27.6124 40.471 27.6124 42.3079 27.7441H42.6152C43.4767 25.2837 43.8469 22.6781 43.7048 20.0752C41.7031 19.3062 39.5992 18.8356 37.4607 18.6783C37.3607 18.6683 37.2658 18.6302 37.1866 18.5684C37.1075 18.5066 37.0476 18.4236 37.0137 18.3291C36.3572 16.4991 35.6168 14.6552 34.9044 12.8672C34.8664 12.7938 34.8466 12.7124 34.8466 12.6298C34.8466 12.5471 34.8664 12.4657 34.9044 12.3923C35.7006 11.1351 36.4829 10.0176 37.2232 8.94198C37.6702 8.31338 38.0893 7.69874 38.5083 7.07015C38.5083 6.98633 38.3407 6.90252 38.2569 6.81871C37.74 6.34376 37.1953 5.85485 36.6505 5.42182C34.7833 3.82537 32.7564 2.42573 30.602 1.24513C29.4146 3.17283 28.4508 5.03069 27.5288 6.83268C27.4767 6.92636 27.3993 7.00351 27.3054 7.05537C27.2116 7.10723 27.1051 7.13171 26.998 7.12602C24.6693 6.88968 22.3192 6.97429 20.0136 7.37746C19.8973 7.39951 19.7771 7.38103 19.6729 7.3251C19.5686 7.26917 19.4867 7.17918 19.4409 7.07015C18.6694 5.15595 17.783 3.29004 16.7867 1.4826C14.1477 2.65561 11.6918 4.2035 9.49504 6.07836C10.428 7.70014 11.4736 9.2545 12.6241 10.73C12.6854 10.8155 12.7184 10.9181 12.7184 11.0233C12.7184 11.1286 12.6854 11.2312 12.6241 11.3167C11.308 13.324 10.1318 15.4196 9.10387 17.5887C9.05254 17.699 8.96486 17.7884 8.85551 17.8418C8.74616 17.8952 8.6218 17.9094 8.50322 17.8821L2.09156 16.2756C0.961322 19.4515 0.715069 22.8747 1.37913 26.1796C2.77602 25.9561 4.17284 25.6767 5.41607 25.3973L7.3159 25.0062C7.43404 24.9833 7.55639 25.0013 7.66299 25.0571C7.76959 25.1129 7.85409 25.2034 7.90257 25.3135C8.78241 27.5817 9.98187 29.7126 11.4646 31.6414C11.5235 31.7305 11.5549 31.8349 11.5549 31.9417C11.5549 32.0485 11.5235 32.153 11.4646 32.2421C10.3192 34.1139 9.24354 35.6365 8.20984 37.0893C9.92894 39.1516 12.1183 40.7709 14.5936 41.8107C14.859 41.3218 15.1105 40.8329 15.362 40.344C15.9906 39.1427 16.5912 37.9832 17.2338 36.8518C17.2861 36.7633 17.3624 36.6914 17.4539 36.6444C17.5454 36.5975 17.6482 36.5773 17.7506 36.5864C19.8655 36.8522 22.0055 36.8522 24.1204 36.5864L24.1623 36.6003Z" fill="#07040C"/>
<path d="M21.3127 25.5648C20.4812 25.5651 19.6585 25.3939 18.8961 25.062C18.3429 24.8277 17.8612 24.4519 17.4992 23.9724C17.1525 23.3978 16.96 22.7434 16.9404 22.0726C16.7442 20.2314 17.2423 18.3833 18.3373 16.8902C18.8988 16.1272 19.6799 15.5539 20.5761 15.2468C21.4722 14.9398 22.4408 14.9137 23.3522 15.172C23.4561 15.1982 23.5461 15.2631 23.6036 15.3536H23.6874C24.6047 15.6926 25.4028 16.2924 25.9835 17.0792C26.5643 17.8659 26.9024 18.8053 26.9562 19.7817C26.9906 20.5325 26.8709 21.2823 26.6045 21.985C26.3381 22.6878 25.9305 23.3285 25.407 23.8677C24.8835 24.4069 24.2551 24.8332 23.5606 25.1203C22.866 25.4073 22.1201 25.5491 21.3686 25.5369L21.3127 25.5648ZM22.0531 16.0241C21.4788 16.0417 20.9155 16.1861 20.4035 16.4469C19.8915 16.7077 19.4436 17.0785 19.0917 17.5327C18.1745 18.8315 17.7714 20.4241 17.9602 22.0028C17.9563 22.4941 18.0867 22.9771 18.3373 23.3997C18.5956 23.7276 18.9385 23.9788 19.3291 24.126C20.0349 24.4479 20.8089 24.5921 21.5832 24.5458C22.3576 24.4995 23.1088 24.2643 23.7712 23.8606C24.4279 23.4364 24.9635 22.8493 25.3259 22.1565C25.6882 21.4637 25.8649 20.6888 25.8387 19.9075C25.794 19.1393 25.5292 18.4003 25.0759 17.7786C24.6226 17.1569 24 16.6788 23.2824 16.4013H23.1287C22.9492 16.3545 22.7822 16.2687 22.6398 16.1498C22.4493 16.087 22.2526 16.0448 22.0531 16.0241ZM23.1147 15.6609L23.2264 16.1778L23.1147 15.6609Z" fill="#07040C"/>
</svg>
