<svg width="79" height="74" viewBox="0 0 79 74" fill="none" xmlns="http://www.w3.org/2000/svg">
<path d="M68.8744 36.8993C67.9043 35.4425 67.2513 33.798 66.9577 32.0726C66.6642 30.3472 66.7366 28.5793 67.1702 26.8836C68.1179 23.9838 69.8486 21.4024 72.1711 19.4243C69.4696 15.4526 66.4915 11.6763 63.2589 8.12345C62.961 7.82544 62.6333 7.55863 62.2811 7.32721C61.7363 6.93608 61.0239 6.68464 60.3394 6.2097C58.6522 8.1339 56.4802 9.57076 54.0493 10.3707C51.6185 11.1707 49.0177 11.3045 46.5175 10.7582C44.0174 10.212 41.7093 9.00568 39.8335 7.2648C37.9578 5.52393 36.583 3.31213 35.852 0.859619C30.3556 1.72335 24.9847 3.25254 19.8577 5.41348C20.8261 7.18019 21.2718 9.186 21.1428 11.1966C21.1455 13.3737 20.6686 15.5246 19.7459 17.4965C18.8046 19.4866 17.1853 21.0763 15.1781 21.9806C13.9943 22.4451 12.7455 22.7231 11.4763 22.8047C9.28728 22.9934 7.08602 22.9934 4.89697 22.8047C4.89697 22.8047 0.706371 38.0448 1.20925 38.0448C2.60614 38.38 3.90518 38.7432 5.24619 39.1483C6.72194 39.5392 8.13342 40.1415 9.43685 40.9363C10.7791 41.7215 11.7765 42.9832 12.2306 44.4704C12.4401 45.47 12.4401 46.5021 12.2306 47.5017C11.5831 51.1777 9.69481 54.5205 6.88061 56.9726C6.88061 56.9726 17.2035 67.0721 17.3712 66.9743C18.701 65.3529 20.4154 64.09 22.3581 63.3005C23.1347 62.8841 23.9427 62.5292 24.7747 62.2388C26.3203 61.809 27.9505 61.7836 29.5087 62.1652C31.0669 62.5468 32.5008 63.3226 33.6729 64.418C35.9824 66.6653 37.3337 69.7184 37.4444 72.939C41.1043 72.7434 44.7642 72.4687 48.424 72.1148C50.1194 72.093 51.769 71.5625 53.1594 70.5922C53.0814 67.3754 53.7709 64.1862 55.1709 61.289C55.8261 59.861 56.7786 58.5895 57.9647 57.5593C59.8411 56.1174 62.1847 55.4207 64.5441 55.6036C66.9098 55.8458 69.2236 56.4537 71.4028 57.4056C73.7915 52.9495 76.2221 48.3957 76.9904 43.2551C73.6663 42.0747 70.8172 39.8435 68.8744 36.8993Z" fill="white"/>
<path d="M50.9665 22.8607C47.7131 20.8317 43.892 19.9058 40.0707 20.2206C37.4436 20.4536 34.9118 21.3184 32.6911 22.7413C30.4704 24.1642 28.6266 26.103 27.3171 28.3924C25.8521 30.778 24.9876 33.4833 24.7979 36.2764C24.6081 39.0694 25.0987 41.8668 26.2276 44.4286C27.4292 46.9844 29.2536 49.1973 31.5333 50.8643C33.8129 52.5313 36.4748 53.599 39.2745 53.9694C41.63 54.2199 44.0117 53.9874 46.2742 53.286C48.5367 52.5847 50.6324 51.4293 52.4332 49.8905C55.9953 46.8173 57.448 42.3333 57.909 37.6957C58.0906 35.3629 57.1966 26.8837 50.9665 22.8607ZM44.5827 47.2503C42.3114 47.9551 39.8797 47.9531 37.6096 47.2447C35.3395 46.5362 33.3382 45.1547 31.871 43.2832C31.0168 42.1812 30.4331 40.8942 30.1668 39.5256C29.9702 38.1244 30.0653 36.6976 30.4462 35.3349C31.2133 31.9859 33.2067 29.0456 36.0338 27.0933C37.4602 26.1365 39.1085 25.5621 40.8206 25.4251C42.5328 25.2882 44.2515 25.5932 45.812 26.311C47.6459 27.2986 49.1911 28.7465 50.2957 30.5125C51.4004 32.2784 52.0262 34.3014 52.1118 36.3826C52.1763 38.7594 51.4809 41.0949 50.1268 43.0494C48.7728 45.0038 46.8306 46.4755 44.5827 47.2503Z" fill="#F35A05"/>
<path d="M37.2908 73.1486C37.1584 73.1488 37.0311 73.0982 36.9349 73.0072C36.8388 72.9163 36.7811 72.7919 36.7739 72.6597C36.5746 69.5428 35.1842 66.6219 32.8906 64.5019C31.7242 63.3446 30.2151 62.595 28.5882 62.3646C27.0003 62.3207 25.4235 62.6409 23.9785 63.3006C21.5469 64.0066 19.4068 65.4758 17.8741 67.4912C17.7888 67.6058 17.6646 67.6852 17.5249 67.7147C17.4543 67.7274 17.3817 67.7253 17.312 67.7085C17.2423 67.6916 17.1768 67.6605 17.1197 67.6169C13.1182 64.722 9.51586 61.3121 6.40565 57.4755C6.32133 57.3662 6.28168 57.229 6.29464 57.0916C6.30761 56.9542 6.37221 56.8268 6.47548 56.7352C9.22201 54.4897 11.0912 51.3498 11.7557 47.865C12.0349 46.7838 12.0349 45.6495 11.7557 44.5683C11.2389 42.9898 9.82799 41.6628 7.42535 40.5173C5.21264 39.4771 2.85954 38.7665 0.440917 38.408C0.372993 38.4002 0.307665 38.3773 0.24968 38.341C0.191696 38.3048 0.14252 38.2561 0.105678 38.1985C0.0625071 38.144 0.0314824 38.0809 0.0146208 38.0135C-0.00224081 37.946 -0.00456189 37.8758 0.00788534 37.8074C0.929784 32.4919 2.41423 27.2896 4.43608 22.288C4.48885 22.1624 4.58785 22.0619 4.71266 22.0073C4.83747 21.9527 4.9785 21.9481 5.10655 21.9946C7.90033 22.9864 14.9825 23.0702 17.8462 19.6898C22.6095 14.1022 20.3605 7.73241 19.5503 5.91646C19.5225 5.85414 19.5073 5.78691 19.5056 5.71868C19.5039 5.65045 19.5157 5.58254 19.5404 5.5189C19.5651 5.45526 19.6021 5.39716 19.6494 5.34791C19.6966 5.29866 19.7532 5.25926 19.8157 5.23198C23.6837 3.65683 27.6556 2.34997 31.7032 1.32069L36.1593 0.0215981C36.2489 -0.00476667 36.3439 -0.00704058 36.4346 0.0150331C36.5254 0.0371069 36.6087 0.0827417 36.6762 0.147313C36.7444 0.212498 36.7936 0.295118 36.8182 0.38623C36.8428 0.477343 36.842 0.573461 36.8159 0.664154C36.4806 1.83754 39.2464 6.68474 43.2415 8.69625C52.6146 13.4177 58.6073 7.5089 60.1578 5.5812C60.2623 5.47882 60.4027 5.42147 60.549 5.42147C60.6952 5.42147 60.8356 5.47882 60.9401 5.5812C65.2383 9.8348 69.177 14.437 72.7158 19.3405C72.7959 19.4542 72.8308 19.5937 72.8136 19.7317C72.7889 19.8698 72.7144 19.9941 72.6041 20.0809C70.6372 21.5078 69.1216 23.4696 68.2375 25.733C67.3534 27.9964 67.1381 30.4662 67.6172 32.8484C68.2399 35.2582 69.5038 37.4542 71.2748 39.203C73.0457 40.9518 75.2575 42.188 77.6748 42.7803C77.8131 42.8211 77.9321 42.9104 78.0101 43.0317C78.0373 43.0958 78.0514 43.1647 78.0514 43.2343C78.0514 43.3039 78.0373 43.3728 78.0101 43.4368C76.4588 48.6109 74.2674 53.571 71.4866 58.2019C71.4221 58.3115 71.3195 58.3934 71.1984 58.4321C71.0772 58.4707 70.9461 58.4634 70.83 58.4115C67.254 56.8889 63.8456 55.6177 60.549 56.7073C59.2848 57.2022 58.145 57.9694 57.2107 58.9544C56.2764 59.9394 55.5705 61.118 55.143 62.4065C54.3883 64.6386 53.9189 66.9573 53.7462 69.3072C53.7462 69.824 53.6204 70.3548 53.5646 70.8857C53.5515 70.9951 53.5038 71.0975 53.4284 71.1779C53.353 71.2584 53.2539 71.3126 53.1455 71.3327C47.9025 72.4203 42.5735 73.042 37.221 73.1905L37.2908 73.1486ZM28.0574 61.289C28.2667 61.2751 28.4767 61.2751 28.686 61.289C30.5464 61.5313 32.2747 62.3808 33.603 63.7057C35.9747 65.8953 37.4649 68.8758 37.7936 72.087C42.7921 71.9138 47.7678 71.3298 52.6705 70.3409L52.7963 69.1535C52.9593 66.7202 53.4287 64.3173 54.1932 62.0015C54.6727 60.5661 55.4636 59.2545 56.5092 58.1606C57.5549 57.0666 58.8294 56.2174 60.2416 55.6736C63.664 54.5141 67.3518 55.7574 70.844 57.2381C73.3809 52.9447 75.4062 48.369 76.8786 43.6045C74.3858 42.8969 72.1221 41.5481 70.3132 39.6927C68.5043 37.8373 67.2135 35.54 66.5696 33.03C66.0747 30.5334 66.2784 27.9486 67.1583 25.5604C68.0382 23.1721 69.5601 21.073 71.5565 19.4942C68.2376 14.9435 64.5665 10.6605 60.577 6.68473C58.6912 8.75212 52.2934 14.4375 42.7527 9.63216C39.0509 7.76034 36.1035 3.49983 35.7682 1.25084L31.9826 2.3544C28.1519 3.34659 24.3831 4.564 20.6958 6.00027C21.7094 8.35784 22.0541 10.9491 21.6919 13.4896C21.3296 16.0302 20.2745 18.4218 18.6424 20.4022C15.5692 24.0061 8.58483 24.1039 5.21833 23.1959C3.37597 27.8248 2.0002 32.6259 1.11148 37.528C3.44446 37.9271 5.71351 38.6365 7.85838 39.6373C10.5404 40.9224 12.1329 42.4311 12.7336 44.3169C13.0887 45.5592 13.1223 46.8715 12.8313 48.1304C12.1521 51.6854 10.3033 54.9111 7.57907 57.294C10.452 60.7569 13.7355 63.8574 17.3573 66.5274C19.0056 64.5546 21.1883 63.0994 23.6433 62.3367C25.0389 61.7227 26.5346 61.3677 28.0574 61.289Z" fill="#07040C"/>
<path d="M40.6014 48.3261C38.731 48.3301 36.8847 47.9054 35.2041 47.0845C33.5236 46.2635 32.0535 45.0683 30.907 43.5906C30.0042 42.4238 29.3914 41.0594 29.119 39.6095C28.9064 38.157 29.0063 36.6759 29.4123 35.2652C30.2137 31.7935 32.2807 28.7453 35.2094 26.7162C36.7169 25.7084 38.4586 25.1057 40.2666 24.9662C42.0747 24.8268 43.8882 25.1552 45.5324 25.92C47.4494 26.9457 49.065 28.4547 50.2191 30.2973C51.3732 32.1399 52.0256 34.2521 52.1117 36.4246C52.151 38.9005 51.4099 41.3259 49.9933 43.3568C48.5766 45.3878 46.5564 46.9211 44.2193 47.7393C43.0526 48.1276 41.831 48.3257 40.6014 48.3261ZM41.216 25.9759C39.2856 25.9894 37.3997 26.5566 35.7822 27.6102C33.0718 29.498 31.1599 32.3259 30.4181 35.5445C30.061 36.8161 29.9707 38.1477 30.1527 39.4558C30.398 40.747 30.9435 41.9624 31.7452 43.0039C33.1457 44.7915 35.0575 46.11 37.2261 46.7838C39.3947 47.4576 41.7172 47.4547 43.8841 46.7755C46.0069 46.034 47.8426 44.6435 49.1312 42.8008C50.4198 40.9581 51.096 38.7567 51.064 36.5084C50.9917 34.519 50.399 32.5834 49.345 30.8946C48.2911 29.2058 46.8127 27.8229 45.0574 26.8838C43.8687 26.2748 42.5516 25.9587 41.216 25.9619V25.9759Z" fill="#07040C"/>
<path d="M40.6294 54.612C39.9755 54.6123 39.3222 54.5703 38.6737 54.4863C35.7924 54.1121 33.0512 53.0208 30.701 51.3124C28.3508 49.6041 26.4668 47.3333 25.2217 44.7081C24.0437 42.0695 23.5297 39.1826 23.7245 36.2996C23.9193 33.4166 24.817 30.6251 26.3393 28.1689C27.7025 25.8273 29.6051 23.8451 31.8891 22.3873C34.173 20.9294 36.7721 20.0382 39.47 19.7876C43.4211 19.4864 47.3641 20.466 50.7149 22.5814C57.4339 26.9257 58.0905 35.9077 57.8949 37.9471C57.3362 43.5347 55.4923 47.7254 52.2375 50.5191C48.9691 53.2046 44.8594 54.6537 40.6294 54.612ZM39.5817 20.7375C37.0338 20.9576 34.5779 21.795 32.4263 23.1775C30.2747 24.5599 28.4923 26.4458 27.2332 28.6718C25.8028 30.978 24.9583 33.5992 24.7732 36.3067C24.5882 39.0141 25.0683 41.7258 26.1717 44.2052C27.3278 46.6742 29.0841 48.8142 31.2802 50.4296C33.4764 52.045 36.0424 53.0843 38.7436 53.4526C41.0275 53.6932 43.3364 53.4655 45.5293 52.7834C47.7221 52.1012 49.7528 50.9791 51.4972 49.4854C54.5285 46.8732 56.2746 43.0039 56.8054 37.6398C57.0429 35.1394 55.9114 27.0794 50.0864 23.3078C46.9343 21.3374 43.2309 20.4361 39.5259 20.7375H39.5817Z" fill="#07040C"/>
</svg>
