<svg width="21" height="24" viewBox="0 0 21 24" fill="none" xmlns="http://www.w3.org/2000/svg">
<path d="M0 24H21V6.54545L13.8158 0H0V24Z" fill="#F35A05"/>
<path d="M15.2929 18.7071C15.6834 19.0976 16.3166 19.0976 16.7071 18.7071C17.0976 18.3166 17.0976 17.6834 16.7071 17.2929L15.2929 18.7071ZM13.7059 11.8529C13.7059 13.9809 11.9809 15.7059 9.85294 15.7059V17.7059C13.0854 17.7059 15.7059 15.0854 15.7059 11.8529H13.7059ZM9.85294 15.7059C7.72502 15.7059 6 13.9809 6 11.8529H4C4 15.0854 6.62045 17.7059 9.85294 17.7059V15.7059ZM6 11.8529C6 9.72502 7.72502 8 9.85294 8V6C6.62045 6 4 8.62045 4 11.8529H6ZM9.85294 8C11.9809 8 13.7059 9.72502 13.7059 11.8529H15.7059C15.7059 8.62045 13.0854 6 9.85294 6V8ZM16.7071 17.2929L13.9975 14.5833L12.5833 15.9975L15.2929 18.7071L16.7071 17.2929Z" fill="white"/>
</svg>
