<svg width="21" height="24" viewBox="0 0 21 24" fill="none" xmlns="http://www.w3.org/2000/svg">
<path d="M0 24H21V6.54545L13.8158 0H0V24Z" fill="#F35A05"/>
<path d="M9.84744 7C9.48704 7 9.19488 7.29848 9.19488 7.66667V8.75616C9.19488 9.0387 9.01794 9.28568 8.76992 9.41069C8.61493 9.48881 8.46574 9.57709 8.32317 9.6747C8.09335 9.83203 7.79541 9.86514 7.55582 9.72382L6.6315 9.17863C6.31939 8.99453 5.92029 9.10378 5.74009 9.42265L5.08754 10.5773C4.90734 10.8962 5.01427 11.3039 5.32639 11.488L6.25078 12.0333C6.49005 12.1744 6.61105 12.454 6.59306 12.7357C6.58749 12.8231 6.58465 12.9112 6.58465 13C6.58465 13.0888 6.58749 13.1769 6.59306 13.2643C6.61105 13.546 6.49005 13.8256 6.25078 13.9667L5.32639 14.512C5.01427 14.6961 4.90734 15.1038 5.08754 15.4226L5.74009 16.5773C5.92029 16.8962 6.31939 17.0055 6.6315 16.8214L7.55581 16.2762C7.7954 16.1349 8.09334 16.168 8.32317 16.3253C8.46574 16.4229 8.61493 16.5112 8.76992 16.5893C9.01794 16.7143 9.19488 16.9613 9.19488 17.2438V18.3333C9.19488 18.7015 9.48704 19 9.84744 19H11.1526C11.513 19 11.8051 18.7015 11.8051 18.3333V17.2438C11.8051 16.9613 11.9821 16.7143 12.2301 16.5893C12.3851 16.5112 12.5343 16.4229 12.6768 16.3253C12.9067 16.168 13.2046 16.1349 13.4442 16.2762L14.3685 16.8214C14.6806 17.0055 15.0797 16.8962 15.2599 16.5773L15.9125 15.4226C16.0927 15.1038 15.9857 14.6961 15.6736 14.512L14.7492 13.9667C14.5099 13.8256 14.389 13.546 14.4069 13.2643C14.4125 13.1769 14.4153 13.0888 14.4153 13C14.4153 12.9112 14.4125 12.8231 14.4069 12.7357C14.389 12.454 14.5099 12.1744 14.7492 12.0333L15.6736 11.488C15.9857 11.3039 16.0927 10.8962 15.9125 10.5773L15.2599 9.42265C15.0797 9.10378 14.6806 8.99453 14.3685 9.17863L13.4442 9.72382C13.2046 9.86514 12.9067 9.83203 12.6768 9.67469C12.5343 9.57709 12.3851 9.48881 12.2301 9.41069C11.9821 9.28568 11.8051 9.0387 11.8051 8.75616V7.66667C11.8051 7.29848 11.513 7 11.1526 7H9.84744Z" stroke="white" stroke-width="2" stroke-linecap="round" stroke-linejoin="round"/>
</svg>
