<svg width="75" height="83" viewBox="0 0 75 83" fill="none" xmlns="http://www.w3.org/2000/svg">
<path d="M56.2633 63.6025C50.3365 67.4208 44.7051 71.6793 39.4169 76.3421C36.6231 78.8006 33.6477 81.5106 29.946 81.9297C29.1451 82.0612 28.3234 81.9694 27.5713 81.6643C27.0396 81.3918 26.5808 80.996 26.2333 80.51C25.8858 80.0239 25.6596 79.4618 25.5738 78.8705C25.4283 77.669 25.5818 76.4503 26.0207 75.3224C26.3084 74.4305 26.7848 73.611 27.4176 72.9198C28.0487 72.3282 28.7643 71.8339 29.5409 71.453C34.8211 68.6592 40.4366 66.2287 45.0603 62.2615C44.4747 61.6367 43.9681 60.9424 43.5517 60.1941C43.1308 59.443 42.9827 58.5695 43.1326 57.7216C43.5971 56.4893 44.4253 55.4273 45.5073 54.6764C37.4302 49.1848 28.7733 44.5987 19.6929 41.0009C22.8079 37.5506 25.5738 33.8209 28.3256 30.0912C32.0693 25.0205 35.8129 19.9498 39.6543 15.2423C43.9847 22.7436 49.9634 29.1274 55.8862 35.4553C59.8679 39.8794 64.1179 44.0546 68.6119 47.9574C71.0424 49.9968 73.7942 52.1481 74.2971 55.319C74.5281 57.3303 74.0055 59.3558 72.8304 61.0043C71.657 62.6341 70.2712 64.0999 68.7096 65.3626C67.5532 66.6186 65.9685 67.396 64.2675 67.5418C61.3392 66.8416 58.6045 65.4957 56.2633 63.6025Z" fill="white"/>
<path d="M27.6133 16.9604C24.918 21.2905 21.842 25.3716 18.4217 29.1552C17.7684 28.8066 17.212 28.3011 16.8024 27.6843C16.3928 27.0674 16.1428 26.3584 16.075 25.6211C15.9571 24.1477 16.1134 22.6652 16.536 21.2488C16.648 20.6514 16.8555 20.076 17.1506 19.5446C17.4534 19.0933 17.8205 18.6886 18.2402 18.3433C19.1897 17.4094 20.3085 16.665 21.5368 16.1502C22.5446 15.8142 23.6157 15.7126 24.6687 15.853C25.7216 15.9934 26.7287 16.3722 27.6133 16.9604V16.9604Z" fill="white"/>
<path d="M19.7767 41.4896C26.4259 32.5216 33.0611 23.5536 39.7522 14.4179C38.0875 11.7398 37.0423 8.72354 36.693 5.5896C36.693 5.5896 10.3338 39.939 10.4315 39.7714C13.6432 39.5186 16.8651 40.1109 19.7767 41.4896V41.4896Z" fill="#F35A05"/>
<path d="M50.3406 58.5176C50.2302 58.5197 50.1221 58.4853 50.0332 58.4198C49.7678 58.2243 22.9337 39.1149 10.5573 40.5257C10.4781 40.5364 10.3974 40.528 10.3221 40.5013C10.2468 40.4745 10.179 40.4302 10.1242 40.372C10.0181 40.3621 9.91667 40.3235 9.83086 40.2603C9.72333 40.1726 9.65336 40.0471 9.63519 39.9095C9.61702 39.7719 9.652 39.6326 9.73307 39.52L36.4415 4.7794C36.5064 4.69748 36.5941 4.63654 36.6935 4.60423C36.7929 4.57193 36.8997 4.5697 37.0003 4.5978C37.1011 4.62973 37.1905 4.6903 37.2575 4.77215C37.3244 4.85401 37.3661 4.9536 37.3774 5.05875C38.2016 15.9126 48.0357 26.1936 57.5485 36.1395C59.1968 37.8576 60.901 39.6457 62.5354 41.4058C62.6023 41.4969 62.6384 41.607 62.6384 41.72C62.6384 41.8331 62.6023 41.9432 62.5354 42.0343C58.9317 47.7062 54.9754 53.1461 50.6898 58.322C50.6034 58.4303 50.478 58.5005 50.3406 58.5176V58.5176ZM11.9262 39.4222C24.4004 39.4222 46.8483 54.8997 50.2428 57.3023C54.2778 52.3742 58.0097 47.2055 61.4179 41.8248C59.8813 40.1765 58.2749 38.5002 56.7244 36.8798C47.463 27.1994 37.8943 17.1977 36.3997 6.46962L11.13 39.4222H11.9262Z" fill="#07040C"/>
<path d="M20.2095 41.266C20.0973 41.2651 19.9888 41.2257 19.9023 41.1542C19.8469 41.1141 19.8 41.0635 19.7644 41.0051C19.7288 40.9468 19.7051 40.882 19.6947 40.8144C19.6843 40.7468 19.6874 40.6779 19.7039 40.6115C19.7203 40.5452 19.7498 40.4828 19.7905 40.4279L38.8999 14.8928C38.9402 14.8378 38.991 14.7912 39.0493 14.7558C39.1077 14.7204 39.1724 14.6968 39.2399 14.6865C39.3073 14.6761 39.3762 14.6791 39.4425 14.6953C39.5088 14.7116 39.5713 14.7407 39.6263 14.781C39.6813 14.8214 39.7278 14.8722 39.7632 14.9306C39.7986 14.9889 39.8222 15.0536 39.8325 15.1211C39.8429 15.1885 39.84 15.2574 39.8238 15.3236C39.8075 15.3899 39.7783 15.4524 39.738 15.5074L20.6286 41.0565C20.5802 41.122 20.517 41.175 20.4442 41.2114C20.3713 41.2479 20.291 41.2666 20.2095 41.266V41.266Z" fill="#07040C"/>
<path d="M17.9326 29.714C17.8595 29.7137 17.7872 29.6988 17.72 29.67C17.6528 29.6412 17.5921 29.5991 17.5415 29.5464C16.619 28.4963 15.968 27.2361 15.6456 25.8761C15.3232 24.5161 15.3391 23.0979 15.6921 21.7455C16.045 20.3931 16.7241 19.1478 17.67 18.1188C18.6159 17.0897 19.7996 16.3083 21.1175 15.8429C22.1626 15.3957 23.3082 15.2363 24.4357 15.3812C25.5631 15.5261 26.6312 15.9701 27.5292 16.6671C27.6093 16.765 27.6518 16.8882 27.6491 17.0146C27.6463 17.1411 27.5985 17.2624 27.5143 17.3567C27.4301 17.451 27.3149 17.5122 27.1896 17.5292C27.0643 17.5462 26.937 17.5178 26.8308 17.4493C26.0743 16.8807 25.1805 16.523 24.2406 16.4126C23.3007 16.3022 22.3483 16.443 21.4807 16.8208C20.5761 17.1365 19.7344 17.6094 18.9942 18.2177C17.5102 19.5452 16.603 21.3997 16.4659 23.3861C16.3481 25.3584 17.0161 27.297 18.3238 28.7781C18.3732 28.8263 18.4124 28.8838 18.4392 28.9474C18.466 29.011 18.4799 29.0793 18.4799 29.1483C18.4799 29.2173 18.466 29.2856 18.4392 29.3492C18.4124 29.4128 18.3732 29.4703 18.3238 29.5185C18.2782 29.5792 18.2192 29.6285 18.1513 29.6624C18.0834 29.6964 18.0085 29.714 17.9326 29.714V29.714Z" fill="#07040C"/>
<path d="M64.0439 67.9887C61.5575 67.9887 59.2945 66.2845 57.3389 64.6641C55.942 63.5466 54.7965 62.5129 53.6231 61.5071C52.4497 60.5014 51.2624 59.4537 49.9214 58.3501C49.8209 58.2574 49.76 58.1295 49.7515 57.993C49.743 57.8564 49.7876 57.722 49.8758 57.6175C49.9641 57.513 50.0893 57.4466 50.2253 57.4322C50.3613 57.4177 50.4977 57.4564 50.6059 57.54C52.0028 58.6575 53.1482 59.7051 54.3076 60.7109C55.467 61.7166 56.6823 62.7503 58.0094 63.8539C60.1047 65.614 62.3676 67.2902 64.7842 66.8712C66.663 66.3059 68.3153 65.1619 69.5057 63.6025C70.8859 62.2701 72.0667 60.7458 73.0119 59.0766C73.4588 58.2743 73.7309 57.3867 73.8104 56.4718C73.8898 55.5569 73.7748 54.6356 73.4729 53.7684C72.8825 52.5959 72.0491 51.5626 71.0284 50.7371C68.053 47.9434 65.0776 45.1496 61.5016 42.2301C61.4149 42.1356 61.3654 42.013 61.3621 41.8848C61.3588 41.7566 61.4021 41.6316 61.4839 41.5329C61.5656 41.4341 61.6803 41.3682 61.8068 41.3475C61.9333 41.3267 62.0631 41.3524 62.1721 41.4199C65.7621 44.4092 68.7515 47.1751 71.7408 49.9688C72.8717 50.8946 73.791 52.0521 74.4368 53.3633C74.8005 54.3678 74.945 55.4384 74.8607 56.5033C74.7764 57.5682 74.4651 58.6028 73.9478 59.5375C72.9553 61.3036 71.7134 62.9174 70.2601 64.3288C68.9247 66.0579 67.0685 67.3116 64.9658 67.9049C64.6617 67.9605 64.3531 67.9885 64.0439 67.9887V67.9887Z" fill="#07040C"/>
<path d="M29.5967 82.8934C28.6484 82.9074 27.7166 82.6453 26.9147 82.1391C24.3025 80.4628 24.1209 76.5516 25.6156 74.0512C26.9007 71.9139 28.7865 71.1177 31.2031 70.0979L32.6 69.5113H32.7397C36.6867 67.6746 40.4319 65.4322 43.9148 62.8202C45.1096 61.8104 46.2043 60.6877 47.1835 59.4677C47.868 58.6854 48.5804 57.8752 49.2509 57.1767C49.2986 57.1272 49.3556 57.0876 49.4186 57.0601C49.4816 57.0326 49.5494 57.0177 49.6182 57.0165C49.6869 57.0152 49.7553 57.0274 49.8193 57.0525C49.8833 57.0776 49.9417 57.1151 49.9913 57.1628C50.0408 57.2105 50.0804 57.2674 50.1079 57.3305C50.1354 57.3935 50.1503 57.4613 50.1515 57.5301C50.1528 57.5988 50.1406 57.6671 50.1155 57.7311C50.0904 57.7951 50.0529 57.8536 50.0052 57.9031C49.3347 58.5876 48.6083 59.3838 47.9797 60.1521C46.9516 61.4349 45.7955 62.6097 44.5294 63.6583C40.9872 66.3243 37.1708 68.6048 33.1448 70.4611L33.0051 70.531L31.6082 71.1177C29.3173 72.0955 27.669 72.8079 26.5515 74.6518C25.434 76.4957 25.4759 80.0019 27.5153 81.3149C29.7922 82.7118 32.8375 81.1613 34.0388 80.407C36.1351 78.9752 38.0944 77.3525 39.8918 75.5598L41.1629 74.3445C45.738 70.1099 50.7427 66.3645 56.0956 63.1694C56.2154 63.1088 56.3536 63.0959 56.4825 63.1331C56.6114 63.1703 56.7214 63.2549 56.7904 63.37C56.8594 63.485 56.8824 63.6219 56.8545 63.7532C56.8267 63.8844 56.7502 64.0002 56.6405 64.0774C51.3464 67.2079 46.3974 70.8882 41.8754 75.0569L40.5902 76.2582C38.7497 78.0978 36.7384 79.7582 34.5836 81.2172C33.1009 82.2116 31.3789 82.7904 29.5967 82.8934V82.8934Z" fill="#07040C"/>
<path d="M44.6968 62.6527C44.6072 62.6519 44.5191 62.6285 44.4409 62.5845C44.3627 62.5405 44.297 62.4775 44.2498 62.4012L43.0206 60.3478C42.8144 60.0234 42.6456 59.6766 42.5176 59.3141C42.3963 58.8155 42.3873 58.2963 42.4912 57.7938C42.5951 57.2913 42.8093 56.8182 43.1184 56.4086C43.6797 55.6906 44.3488 55.0639 45.1019 54.5507C45.2135 54.4924 45.3422 54.4758 45.4649 54.5036C45.5877 54.5315 45.6967 54.6021 45.7722 54.7028C45.8478 54.8035 45.885 54.9278 45.8773 55.0535C45.8697 55.1792 45.8177 55.298 45.7305 55.3888C45.0653 55.8318 44.4757 56.3789 43.9844 57.0092C43.7615 57.2856 43.6041 57.609 43.5243 57.955C43.4444 58.301 43.4441 58.6606 43.5234 59.0068C43.6188 59.2906 43.7552 59.5589 43.9285 59.803L45.1438 61.8564C45.2156 61.9769 45.2369 62.121 45.2029 62.2571C45.1688 62.3932 45.0823 62.5103 44.9622 62.5828C44.8799 62.6253 44.7894 62.6492 44.6968 62.6527V62.6527Z" fill="#07040C"/>
<path d="M69.9669 55.8916C69.8346 55.8952 69.7055 55.8505 69.6037 55.7659C67.0096 53.3853 64.2961 51.138 61.4738 49.0329C61.4169 48.9941 61.3686 48.9439 61.3319 48.8856C61.2951 48.8273 61.2707 48.7621 61.2602 48.694C61.2498 48.6258 61.2534 48.5563 61.2709 48.4897C61.2884 48.423 61.3195 48.3607 61.3621 48.3065C61.4022 48.2512 61.4529 48.2043 61.5113 48.1687C61.5696 48.1331 61.6344 48.1094 61.702 48.099C61.7695 48.0886 61.8385 48.0918 61.9048 48.1082C61.9712 48.1246 62.0336 48.154 62.0885 48.1948C64.9459 50.3148 67.6921 52.5808 70.3161 54.9837C70.4126 55.0828 70.4665 55.2155 70.4665 55.3538C70.4665 55.4921 70.4126 55.6249 70.3161 55.724C70.2719 55.7736 70.2183 55.814 70.1583 55.8428C70.0984 55.8715 70.0333 55.8882 69.9669 55.8916V55.8916Z" fill="#07040C"/>
<path d="M67.131 59.2581C67.0106 59.2553 66.8937 59.2163 66.7957 59.1463C64.0019 56.9532 61.2081 54.802 58.4144 52.7346C58.3046 52.6488 58.232 52.5243 58.2112 52.3866C58.1904 52.249 58.2231 52.1085 58.3027 51.9942C58.3862 51.8816 58.511 51.8066 58.6498 51.7856C58.7885 51.7647 58.9298 51.7995 59.043 51.8825C61.8367 53.9639 64.7143 56.0731 67.4243 58.3221C67.5327 58.4098 67.6022 58.5366 67.6179 58.6752C67.6336 58.8137 67.5941 58.9528 67.5081 59.0625C67.4627 59.1199 67.4056 59.1671 67.3406 59.2008C67.2755 59.2345 67.2041 59.2541 67.131 59.2581Z" fill="#07040C"/>
<path d="M64.2397 62.9599C64.112 62.9614 63.988 62.9167 63.8905 62.8342C61.249 60.5002 58.4738 58.322 55.579 56.3107C55.5221 56.2704 55.4737 56.2192 55.4366 56.1602C55.3995 56.1011 55.3744 56.0353 55.3627 55.9666C55.351 55.8978 55.353 55.8274 55.3686 55.7595C55.3841 55.6915 55.4129 55.6272 55.4532 55.5703C55.4923 55.5139 55.5422 55.4658 55.6001 55.4289C55.6579 55.392 55.7225 55.3669 55.7901 55.3552C55.8577 55.3435 55.927 55.3454 55.9939 55.3607C56.0608 55.3761 56.1239 55.4046 56.1797 55.4446C59.0976 57.4848 61.896 59.6909 64.561 62.0519C64.6574 62.151 64.7114 62.2838 64.7114 62.4221C64.7114 62.5603 64.6574 62.6932 64.561 62.7923C64.4761 62.8832 64.3628 62.9423 64.2397 62.9599V62.9599Z" fill="#07040C"/>
<path d="M18.9942 13.2448C18.9052 13.2405 18.8185 13.2155 18.741 13.1719C18.6634 13.1282 18.597 13.0671 18.5472 12.9933C16.279 9.28478 15.2559 4.94817 15.6276 0.616915C15.631 0.548279 15.6485 0.481055 15.6789 0.419412C15.7092 0.357768 15.7519 0.302991 15.8043 0.258485C15.8566 0.213979 15.9175 0.180693 15.9832 0.16065C16.049 0.140607 16.1181 0.13426 16.1864 0.141978C16.3248 0.152719 16.4535 0.217222 16.5448 0.321662C16.6362 0.426102 16.683 0.562163 16.6753 0.700724C16.3224 4.81053 17.302 8.92475 19.4691 12.4346C19.5071 12.4928 19.5331 12.5582 19.5453 12.6268C19.5575 12.6953 19.5557 12.7657 19.54 12.8335C19.5243 12.9013 19.4951 12.9653 19.4541 13.0216C19.4132 13.0778 19.3612 13.1253 19.3014 13.161C19.2108 13.2215 19.103 13.2509 18.9942 13.2448V13.2448Z" fill="#07040C"/>
<path d="M15.0413 16.3459C14.9679 16.3483 14.8948 16.3345 14.8272 16.3055C14.7596 16.2765 14.6992 16.2331 14.6503 16.1782C12.8244 14.1439 10.7927 12.3042 8.58774 10.6885C8.4766 10.607 8.40237 10.4847 8.38141 10.3484C8.36045 10.2122 8.39446 10.0733 8.47596 9.96213C8.55747 9.85099 8.67984 9.77676 8.81606 9.7558C8.95229 9.73484 9.09123 9.76885 9.20237 9.85035C11.4661 11.4879 13.5498 13.3609 15.4185 15.4379C15.515 15.537 15.5689 15.6698 15.5689 15.8081C15.5689 15.9464 15.515 16.0792 15.4185 16.1782C15.3166 16.2769 15.1829 16.3363 15.0413 16.3459Z" fill="#07040C"/>
<path d="M12.2198 20.3688H12.0521C8.41584 19.1986 4.54257 18.968 0.793164 19.6983C0.658217 19.7234 0.518894 19.6952 0.404297 19.6196C0.289699 19.5441 0.208734 19.4271 0.17853 19.2932C0.164267 19.2262 0.16353 19.1571 0.176228 19.0897C0.188927 19.0224 0.214843 18.9583 0.252535 18.9012C0.290228 18.844 0.338926 18.7948 0.395771 18.7566C0.452616 18.7184 0.516494 18.6919 0.583682 18.6786C4.50853 17.9103 8.56384 18.1458 12.3734 19.3631C12.4389 19.3837 12.4995 19.4171 12.5519 19.4613C12.6044 19.5056 12.6474 19.5599 12.6786 19.621C12.7098 19.6822 12.7286 19.7489 12.7337 19.8173C12.7389 19.8857 12.7304 19.9545 12.7086 20.0196C12.6737 20.1215 12.6078 20.2099 12.5201 20.2725C12.4325 20.3352 12.3275 20.3688 12.2198 20.3688V20.3688Z" fill="#07040C"/>
<path d="M25.2804 40.5679H25.1547C25.1222 40.534 25.1041 40.489 25.1041 40.4421C25.1041 40.3953 25.1222 40.3502 25.1547 40.3164L30.2254 34.8127C30.259 34.7875 30.3003 34.7747 30.3422 34.7765C30.3841 34.7783 30.4241 34.7946 30.4554 34.8226C30.4867 34.8506 30.5074 34.8886 30.5138 34.93C30.5203 34.9715 30.5121 35.014 30.4908 35.0501L25.4061 40.5539C25.3874 40.565 25.3665 40.572 25.3448 40.5744C25.3231 40.5768 25.3012 40.5746 25.2804 40.5679V40.5679Z" fill="#07040C"/>
<path d="M28.0042 42.2161H27.8784C27.846 42.1823 27.8279 42.1373 27.8279 42.0904C27.8279 42.0435 27.846 41.9985 27.8784 41.9647L30.4487 39.1709C30.4643 39.1553 30.4828 39.1429 30.5031 39.1344C30.5235 39.126 30.5454 39.1216 30.5674 39.1216C30.5895 39.1216 30.6113 39.126 30.6317 39.1344C30.6521 39.1429 30.6706 39.1553 30.6862 39.1709C30.704 39.1866 30.7184 39.206 30.7281 39.2276C30.7379 39.2493 30.743 39.2728 30.743 39.2966C30.743 39.3204 30.7379 39.3439 30.7281 39.3656C30.7184 39.3873 30.704 39.4066 30.6862 39.4223L28.1159 42.2161C28.08 42.2301 28.0401 42.2301 28.0042 42.2161V42.2161Z" fill="#07040C"/>
</svg>
