<svg width="21" height="24" viewBox="0 0 21 24" fill="none" xmlns="http://www.w3.org/2000/svg">
<path d="M0 24H21V6.54545L13.8158 0H0V24Z" fill="#F35A05"/>
<path d="M10 8.66667L9.88957 7.67278C9.38314 7.72905 9 8.15712 9 8.66667H10ZM9 16.3333C9 16.8856 9.44772 17.3333 10 17.3333C10.5523 17.3333 11 16.8856 11 16.3333H9ZM8.5 13.5C7.94772 13.5 7.5 13.9477 7.5 14.5C7.5 15.0523 7.94772 15.5 8.5 15.5V13.5ZM11.5 15.5C12.0523 15.5 12.5 15.0523 12.5 14.5C12.5 13.9477 12.0523 13.5 11.5 13.5V15.5ZM16 12.5C16 15.5376 13.5376 18 10.5 18V20C14.6421 20 18 16.6421 18 12.5H16ZM10.5 18C7.46243 18 5 15.5376 5 12.5H3C3 16.6421 6.35786 20 10.5 20V18ZM5 12.5C5 9.46243 7.46243 7 10.5 7V5C6.35786 5 3 8.35786 3 12.5H5ZM10.5 7C13.5376 7 16 9.46243 16 12.5H18C18 8.35786 14.6421 5 10.5 5V7ZM9 8.66667V12H11V8.66667H9ZM9 12V16.3333H11V12H9ZM10 12C9.78307 12.9762 9.78341 12.9763 9.78376 12.9763C9.78389 12.9764 9.78426 12.9765 9.78452 12.9765C9.78506 12.9766 9.78564 12.9768 9.78626 12.9769C9.78752 12.9772 9.78896 12.9775 9.79059 12.9778C9.79384 12.9785 9.79784 12.9794 9.80255 12.9804C9.81198 12.9824 9.8243 12.9849 9.83932 12.9879C9.86934 12.9938 9.91031 13.0016 9.9607 13.0102C10.0612 13.0273 10.2009 13.0482 10.3674 13.0652C10.6932 13.0984 11.1549 13.12 11.6376 13.053C12.1093 12.9875 12.6987 12.8239 13.1838 12.4062C13.7081 11.9547 14 11.3018 14 10.5H12C12 10.7816 11.9169 10.8578 11.8787 10.8907C11.8013 10.9574 11.6407 11.0334 11.3624 11.072C11.0951 11.1091 10.8068 11.0996 10.5701 11.0755C10.4553 11.0638 10.3607 11.0495 10.2971 11.0387C10.2655 11.0333 10.242 11.0288 10.2281 11.026C10.2211 11.0247 10.2166 11.0237 10.2147 11.0233C10.2137 11.0231 10.2134 11.023 10.2138 11.0231C10.2139 11.0232 10.2143 11.0232 10.2148 11.0233C10.2151 11.0234 10.2154 11.0235 10.2157 11.0236C10.2159 11.0236 10.2162 11.0237 10.2163 11.0237C10.2166 11.0237 10.2169 11.0238 10 12ZM14 10.5C14 9.69904 13.7109 9.0516 13.2283 8.58248C12.7741 8.14089 12.2125 7.91818 11.7425 7.80069C11.2653 7.68138 10.8057 7.65151 10.478 7.64848C10.3111 7.64693 10.1707 7.65232 10.0695 7.65834C10.0187 7.66136 9.97739 7.66457 9.94698 7.66722C9.93177 7.66854 9.91925 7.66973 9.90963 7.67069C9.90482 7.67116 9.90073 7.67159 9.89738 7.67194C9.8957 7.67212 9.89421 7.67228 9.89291 7.67242C9.89226 7.67249 9.89165 7.67255 9.8911 7.67261C9.89082 7.67264 9.89044 7.67269 9.8903 7.6727C9.88993 7.67274 9.88957 7.67278 10 8.66667C10.1104 9.66055 10.1101 9.66059 10.1098 9.66062C10.1097 9.66063 10.1094 9.66067 10.1092 9.66069C10.1088 9.66073 10.1085 9.66077 10.1082 9.6608C10.1076 9.66086 10.1072 9.6609 10.107 9.66093C10.1065 9.66098 10.1067 9.66095 10.1076 9.66087C10.1093 9.66069 10.1136 9.66027 10.1204 9.65969C10.1339 9.65851 10.157 9.65667 10.1883 9.65481C10.2512 9.65107 10.3452 9.64734 10.4595 9.64839C10.6943 9.65057 10.9847 9.67279 11.2575 9.74098C11.5375 9.81099 11.7259 9.9112 11.8342 10.0165C11.9141 10.0942 12 10.2176 12 10.5H14ZM8.5 15.5H11.5V13.5H8.5V15.5Z" fill="white"/>
</svg>
