<svg width="25" height="17" viewBox="0 0 25 17" fill="none" xmlns="http://www.w3.org/2000/svg">
<path d="M3.70696 16.4836C3.46705 16.4833 3.22797 16.4551 2.99454 16.3997C2.56126 16.2796 2.15816 16.0695 1.81157 15.783C1.46497 15.4966 1.18265 15.1403 0.983018 14.7375C0.547 13.8872 0.448629 12.9034 0.707716 11.9837C0.966804 11.0639 1.56418 10.2762 2.3799 9.77848C2.3799 9.77848 2.3799 9.77848 2.46371 9.77848C2.54753 9.77848 19.2263 2.43086 23.6545 0.433309C23.7651 0.386517 23.8881 0.377587 24.0043 0.407902C24.1205 0.438216 24.2234 0.50607 24.2971 0.600929C24.3707 0.694504 24.4107 0.810143 24.4107 0.929219C24.4107 1.04829 24.3707 1.16389 24.2971 1.25747V1.32734L6.13753 15.7711C5.41133 16.2344 4.56834 16.4815 3.70696 16.4836ZM2.92471 10.6725C2.34892 11.0392 1.92722 11.6039 1.73935 12.2602C1.55148 12.9164 1.61038 13.6188 1.90493 14.2346C2.04001 14.5159 2.23509 14.7642 2.47642 14.9621C2.71775 15.16 2.99946 15.3027 3.30181 15.38C4.02967 15.4952 4.77456 15.3412 5.39714 14.947L20.3438 2.97565C14.0718 5.76943 3.73491 10.3093 2.92471 10.6725Z" fill="#07040C"/>
</svg>
