<svg width="21" height="22" viewBox="0 0 21 22" fill="none" xmlns="http://www.w3.org/2000/svg">
<path d="M16.4432 21.1565C16.3263 21.1577 16.2128 21.1182 16.1219 21.0448L10.3667 16.6446L4.61157 21.0448C4.52403 21.1143 4.41629 21.1535 4.30455 21.1566C4.19281 21.1598 4.0831 21.1266 3.99182 21.062C3.90054 20.9975 3.83262 20.9051 3.79828 20.7988C3.76394 20.6924 3.76503 20.5778 3.80135 20.472L6.00846 13.32L0.225325 8.90583C0.137986 8.83892 0.0736126 8.74651 0.04108 8.6414C0.00854741 8.5363 0.00945606 8.42367 0.0437231 8.31912C0.0829059 8.21723 0.151772 8.12945 0.241439 8.06718C0.331107 8.00491 0.437419 7.97102 0.546582 7.9699H7.65677L9.86379 0.831811C9.89894 0.726188 9.96649 0.634303 10.0567 0.569127C10.147 0.503951 10.2554 0.468791 10.3667 0.468628V0.468628C10.4781 0.468791 10.5865 0.503951 10.6767 0.569127C10.767 0.634303 10.8344 0.726188 10.8696 0.831811L13.0767 7.9699H20.1868C20.296 7.97102 20.4023 8.00491 20.4919 8.06718C20.5816 8.12945 20.6505 8.21723 20.6897 8.31912C20.7239 8.42367 20.7249 8.5363 20.6924 8.6414C20.6599 8.74651 20.5955 8.83892 20.5081 8.90583L14.725 13.32L16.932 20.472C16.967 20.5779 16.9669 20.6921 16.9317 20.7979C16.8965 20.9036 16.828 20.9951 16.7365 21.0587C16.6499 21.1183 16.5482 21.1522 16.4432 21.1565ZM2.09711 9.01756L6.93036 12.7054C7.01654 12.77 7.08034 12.8599 7.1129 12.9626C7.14546 13.0653 7.14516 13.1756 7.11197 13.2781L5.28205 19.2148L10.0454 15.569C10.1387 15.5009 10.2512 15.4641 10.3667 15.4641C10.4822 15.4641 10.5947 15.5009 10.688 15.569L15.4513 19.2148L13.6214 13.2781C13.5882 13.1756 13.5879 13.0653 13.6205 12.9626C13.653 12.8599 13.7168 12.77 13.803 12.7054L18.6363 9.01756H12.6855C12.5725 9.01645 12.4627 8.97926 12.3723 8.91142C12.2818 8.84358 12.2154 8.74865 12.1827 8.64042L10.3667 2.75952L8.55071 8.64042C8.51799 8.74865 8.45164 8.84358 8.36118 8.91142C8.27073 8.97926 8.16092 9.01645 8.04786 9.01756H2.09711Z" fill="#07040C"/>
</svg>
