<svg width="72" height="71" viewBox="0 0 72 71" fill="none" xmlns="http://www.w3.org/2000/svg">
<path fill-rule="evenodd" clip-rule="evenodd" d="M7.21384 1.03027C3.79889 1.03027 1.03052 3.79864 1.03052 7.21359V58.7413C1.03052 62.1562 3.79888 64.9246 7.21384 64.9246H63.8943C67.3092 64.9246 70.0776 62.1562 70.0776 58.7413V7.21359C70.0776 3.79864 67.3092 1.03027 63.8943 1.03027H7.21384ZM56.6804 56.6802H13.3972C11.1205 56.6802 9.27495 54.8346 9.27495 52.558C9.27495 52.558 7.72912 49.4663 7.72912 47.4052C7.72912 45.3441 9.27495 42.7677 9.27495 42.7677V24.2177C9.27495 24.2177 8.24439 21.1261 8.24439 19.065C8.24439 17.0039 9.27495 14.4275 9.27495 14.4275C9.27495 11.5817 11.5819 9.2747 14.4277 9.2747H56.6804C59.5262 9.2747 61.8332 11.5817 61.8332 14.4275V51.5274C61.8332 54.3732 59.5262 56.6802 56.6804 56.6802Z" fill="#F35A05"/>
<g opacity="0.13">
<path d="M11.6239 10.1694L10.7963 11.5488C10.5216 12.0066 10.6549 12.5993 11.0991 12.8954L11.4062 13.1001C11.6844 13.2856 11.8515 13.5978 11.8515 13.9322V19.0651V24.4626C11.8515 24.8966 11.4997 25.2484 11.0657 25.2484C10.6419 25.2484 10.2945 25.5844 10.2804 26.008L9.81177 40.0657C9.79875 40.4563 10.0145 40.8187 10.364 40.9935L11.2987 41.4608C11.6375 41.6302 11.8515 41.9765 11.8515 42.3553V51.6286C11.8515 51.8938 11.7462 52.1481 11.5586 52.3357L10.9641 52.9302C10.5931 53.3012 10.5719 53.8958 10.9155 54.2922L13.3369 57.0861C13.5377 57.3179 13.8338 57.4447 14.1401 57.4301L16.6153 57.3122C17.5106 57.2696 17.902 56.1614 17.2321 55.5659L14.7635 53.3717C14.55 53.1819 14.4279 52.9099 14.4279 52.6243V42.0142C14.4279 41.833 14.3786 41.6551 14.2854 41.4997L13.0246 39.3984C12.9313 39.2429 12.8821 39.0651 12.8821 38.8839V28.5761C12.8821 28.4209 12.9182 28.2677 12.9876 28.1289L13.807 26.4901C13.8765 26.3512 13.9126 26.1981 13.9126 26.0429V20.6109V13.5201C13.9126 13.4384 13.9226 13.3569 13.9425 13.2776L14.3607 11.6046C14.4047 11.4288 14.4956 11.2682 14.6238 11.14L14.6689 11.0949C15.3685 10.3953 14.7358 9.21321 13.7656 9.40725L12.2853 9.70332C12.009 9.75857 11.7689 9.92781 11.6239 10.1694Z" fill="black"/>
</g>
<g opacity="0.13">
<path d="M49.4667 37.6153C48.0501 38.0875 45.3355 36.8289 44.8914 36.6151C44.8487 36.5945 44.8067 36.5772 44.7618 36.5623L43.6801 36.2017C42.9632 35.9628 42.3153 36.7098 42.6533 37.3856C42.7281 37.5354 42.8457 37.6596 42.9911 37.7427L46.2197 39.5877C46.3225 39.6464 46.4348 39.6864 46.5515 39.7058L49.1154 40.1331C49.3426 40.171 49.5759 40.1293 49.7759 40.015L52.7419 38.3201C52.9555 38.1981 53.1167 38.0015 53.1945 37.7681L54.4831 33.9022C54.5691 33.6441 54.5312 33.3607 54.3803 33.1343C54.0167 32.5889 53.2063 32.6168 52.8811 33.1859L51.5769 35.4682C51.5443 35.5254 51.5177 35.585 51.4929 35.646C51.3543 35.9858 50.7856 37.1757 49.4667 37.6153Z" fill="black"/>
</g>
<path d="M71.0662 17.6084C71.0662 16.7176 71.0662 15.8267 71.0662 14.9358C71.0662 12.9036 70.9688 10.7599 71.0662 8.7555C71.2171 6.97643 70.96 5.18638 70.3146 3.52168C69.0339 0.918698 66.1386 0.668148 63.7584 0.459352C61.9071 0.306236 59.9026 0.22272 57.4388 0.22272C55.9216 0.22272 54.3904 0.22272 52.8732 0.22272H50.8966H48.6138C46.0943 0.22272 43.5748 0.222718 41.0554 0.11136C38.7864 0.11136 36.5315 0 34.2486 0C28.806 0 23.2521 0.11137 17.893 0.208808L10.7104 0.33408H9.72213C6.93819 0.33408 3.79234 0.334085 1.88535 2.64475C-0.021651 4.95542 0.0757846 8.51886 0.159303 11.6647C0.159303 12.3885 0.159303 13.0567 0.159303 13.7387C0.0897043 18.0956 0.159303 22.536 0.159303 26.8233C0.159303 31.9875 0.159303 37.3187 0.0618653 42.5664C0.0618653 45.8932 -0.0773316 49.749 0.0618653 53.5491C0.0618653 54.1337 0.0618653 54.7462 0.0618653 55.3865C-0.127518 57.8364 0.204575 60.2986 1.03624 62.6108C2.31686 65.2555 4.85024 65.4782 7.32795 65.4782H7.99609V65.9237C7.88473 67.4548 7.74554 69.5289 8.76167 70.3362C9.63734 70.8431 10.6501 71.0622 11.657 70.9626C12.2834 70.9626 12.9237 70.9626 13.4804 70.9626C14.0372 70.9626 14.2878 70.9626 14.6358 70.9626H15.7354C16.2226 70.9626 16.7516 70.9626 17.2805 70.9626C18.282 71.0606 19.2881 70.831 20.148 70.3084C20.3452 70.1332 20.5039 69.9191 20.6141 69.6795C20.7243 69.4399 20.7836 69.1801 20.7883 68.9164C20.8372 68.1795 20.8372 67.4401 20.7883 66.7032C20.7883 66.2577 20.7883 65.8123 20.7883 65.3947H24.7136C29.4742 65.3947 34.3043 65.5757 38.9952 65.7288C42.9902 65.8541 47.1243 65.9793 51.1889 66.035V66.1742C51.1054 67.5662 50.994 69.5567 51.9684 70.3501C52.8441 70.857 53.8568 71.0761 54.8637 70.9765C55.4901 70.9765 56.1304 70.9765 56.6872 70.9765C57.244 70.9765 57.4945 70.9765 57.8425 70.9765H58.9422C59.4294 70.9765 59.9583 70.9765 60.4872 70.9765C61.4887 71.0745 62.4949 70.8449 63.3547 70.3223C63.5507 70.147 63.7077 69.9325 63.8156 69.6928C63.9235 69.453 63.9799 69.1933 63.9811 68.9303C64.0441 68.1846 64.0441 67.4349 63.9811 66.6892C63.9811 66.4387 63.9811 66.1742 63.9811 65.9097C67.0713 65.6592 69.0061 64.8797 69.897 63.5434C70.3803 62.6525 70.6113 61.6466 70.5651 60.6342V60.3697C70.6765 58.3931 70.6904 56.3609 70.7043 54.3982C70.7043 53.4099 70.7043 52.4076 70.7043 51.4193L70.8713 42.8727C71.0245 34.6601 71.1497 26.0577 71.0662 17.6084ZM68.9783 53.5908C68.9783 54.3564 68.9783 55.122 68.9783 55.8876C68.9783 57.3909 68.9783 58.9499 68.8808 60.4671C68.672 64.1002 64.4822 64.2533 61.406 64.3786H60.5151C58.6916 64.4621 56.7707 64.5178 54.6827 64.5178C50.7435 64.5178 46.7485 64.3508 42.8649 64.1837C39.7747 64.0584 36.5871 63.9331 33.4552 63.8914H30.7687C27.9848 63.8914 25.2008 63.8914 22.4169 64.0028C19.633 64.1141 16.849 64.1141 14.0651 64.1141C11.2811 64.1141 8.4972 64.0445 6.20045 63.9192C1.91318 63.6826 1.81575 59.3953 1.73223 55.9432V54.9828C1.62087 52.0179 1.56519 49.5263 1.60695 47.0068C1.74615 38.2235 1.81574 30.4563 1.81574 23.2737C1.81574 19.3066 1.81574 14.6157 1.94102 9.99435C2.05238 6.02724 2.49781 2.70044 6.93819 2.21325C8.02509 2.10554 9.1172 2.05906 10.2093 2.07404H12.687L18.6168 1.96268C23.7253 1.86524 29.0009 1.76781 34.1929 1.76781H43.8115C47.9874 1.76781 52.2746 1.8374 56.6176 1.85132H59.6799C61.7018 1.80133 63.723 1.97406 65.7071 2.36636C69.5629 3.21547 69.3959 7.11297 69.2706 10.5372C69.2706 11.3585 69.2706 12.1519 69.2706 12.8896C69.5211 21.3389 69.3819 29.9273 69.2706 38.2374L68.9783 53.5908ZM57.759 69.2783H56.9238H55.8381C55.2964 69.2913 54.7549 69.2446 54.2234 69.1391C52.6922 68.7772 52.734 67.5523 52.8314 66.1464H54.808C56.0886 66.1464 57.3553 66.1464 58.622 66.1464H60.4316H62.2551C62.3872 67.0231 62.2564 67.9192 61.8792 68.7215C61.4755 69.2644 60.362 69.334 59.5686 69.334H58.5107L57.759 69.2783ZM14.6079 69.2783H13.7728H12.687C12.1499 69.2919 11.613 69.2453 11.0863 69.1391C9.9866 68.8747 9.91701 68.7076 9.69429 67.5662C9.63175 66.9786 9.63175 66.386 9.69429 65.7984V65.5618H19.1318C19.1318 65.7566 19.1318 65.9654 19.1318 66.1742C19.2534 67.0568 19.1181 67.9556 18.7421 68.7633C18.3384 69.3061 17.2248 69.3757 16.4314 69.3757H15.3735L14.6079 69.2783Z" fill="#333333"/>
<path d="M62.0463 24.7774C62.0463 23.3854 62.0463 21.9935 62.0463 20.6015C62.0463 18.8337 61.9628 17.0102 62.0463 15.2146V14.7831C62.2767 13.0684 61.9185 11.3262 61.0302 9.84158C59.6382 8.11554 56.6594 7.92065 54.5575 7.92065C53.778 7.92065 53.0264 7.92065 52.3443 7.92065H50.7992H50.145C47.542 7.92065 44.939 7.92065 42.3221 7.92065C39.7052 7.92065 37.1022 7.92065 34.4018 7.92065C30.56 7.92065 26.6625 8.00417 22.8902 8.07377L17.7956 8.17122C13.745 8.24082 10.0702 8.63057 9.44381 12.6116C9.08158 12.5911 8.72011 12.6634 8.39367 12.8217C8.06724 12.9801 7.78667 13.2192 7.57857 13.5164C6.89651 14.6439 7.0357 16.8432 7.13314 18.4579C7.13314 18.8755 7.13314 19.2513 7.13314 19.5575C7.13314 19.8638 7.13314 20.3231 7.13314 20.7825C7.13314 22.3275 6.98002 24.2346 7.75953 25.2089C8.15361 25.6202 8.69351 25.8601 9.26285 25.877V28.146C9.26285 32.1827 9.26285 36.3586 9.17933 40.4649C8.85853 40.4733 8.54444 40.5586 8.26346 40.7136C7.98248 40.8686 7.74282 41.0888 7.56465 41.3557C6.88259 42.4832 7.02178 44.6826 7.11922 46.2973C7.11922 46.7148 7.11922 47.0907 7.11922 47.3969C7.11922 47.7032 7.11922 48.1625 7.11922 48.6218C7.11922 50.1669 6.96611 52.0739 7.74561 53.0483C7.96687 53.2693 8.22951 53.4445 8.5185 53.5639C8.8075 53.6833 9.11719 53.7446 9.42989 53.7443C10.0424 57.4469 12.7706 57.9202 15.6242 57.9202C16.2923 57.9202 17.0161 57.9202 17.6564 57.9202L19.4799 57.8506H24.4214C29.9893 57.8506 35.5571 57.9202 41.0137 58.0594L44.6885 58.1847C46.8739 58.2682 49.1428 58.3517 51.3699 58.3517H54.1539C56.0509 58.4552 57.9484 58.1563 59.7217 57.4748C60.233 57.2556 60.6781 56.9064 61.0126 56.462C61.3471 56.0176 61.5596 55.4933 61.6287 54.9414C62.0387 52.7295 62.1371 50.4712 61.9211 48.2321C61.9211 47.1881 61.8375 46.172 61.9211 45.2393C61.9211 43.4437 61.9211 41.6342 62.0185 39.8246C61.9628 34.9388 62.0602 29.7885 62.0463 24.7774ZM60.1672 46.3251C60.2895 48.3819 60.229 50.4454 59.9862 52.4915C59.5547 55.2754 58.7056 56.1385 56.214 56.4308C54.6003 56.6002 52.9785 56.6792 51.356 56.6674H51.0219C47.5698 56.6674 44.0621 56.5561 40.6796 56.4308C37.9792 56.3473 35.2648 56.2498 32.5505 56.222C29.8362 56.1942 26.9826 56.222 24.1987 56.222H22.8067C22.2778 56.222 21.6096 56.222 20.858 56.3055C19.8836 56.3055 18.77 56.4308 17.6564 56.4308C13.7172 56.4308 11.5874 55.5817 11.0167 53.7582H11.3508C12.3669 53.6051 12.5757 53.2988 12.7428 52.3662C12.8851 51.2117 12.9084 50.0456 12.8124 48.8863C12.8124 48.4826 12.8124 48.079 12.8124 47.7032C12.8124 47.3273 12.8124 46.5617 12.8124 45.9075C13.0105 44.515 12.9396 43.0974 12.6036 41.7316C12.4312 41.3643 12.1576 41.0539 11.8148 40.8369C11.472 40.6199 11.0744 40.5054 10.6687 40.5067C10.7523 36.4003 10.7523 32.2244 10.7523 28.1877V25.891L11.3369 25.8214C12.353 25.6683 12.5618 25.362 12.7289 24.4294C12.8712 23.2749 12.8945 22.1088 12.7985 20.9495C12.7985 20.5458 12.7985 20.1422 12.7985 19.7663C12.7985 19.3905 12.7985 18.6249 12.7985 17.9707C12.9966 16.5782 12.9257 15.1606 12.5897 13.7948C12.4521 13.4622 12.2239 13.1749 11.931 12.9657C11.6382 12.7565 11.2924 12.6338 10.9332 12.6116C11.49 10.12 14.1208 9.82767 16.8769 9.82767H18.77L27.1218 9.68846C29.3211 9.68846 31.5065 9.68846 33.6919 9.68846C35.8773 9.68846 37.8678 9.68847 40.0115 9.75806C40.9441 9.75806 41.8906 9.75806 42.7954 9.75806H46.331H49.8527C51.6622 9.75806 53.1516 9.75806 54.5436 9.84158H55.3788C56.3909 9.77675 57.4055 9.92371 58.3576 10.2731C60.1254 11.1639 60.1393 12.6116 60.1532 14.282V14.7413C60.1532 17.8732 60.2368 21.033 60.2507 24.1649C60.2507 28.9811 60.1811 33.9087 60.0837 38.6414L60.1254 43.2906C60.1115 44.265 60.1393 45.295 60.1672 46.3251ZM9.68044 52.0739C9.49949 52.0739 8.95662 52.0739 8.84527 50.9047C8.67123 50.0769 8.61964 49.228 8.69215 48.3852C8.69215 48.0372 8.69215 47.7031 8.69215 47.4108C8.69215 47.1185 8.69215 46.8123 8.69215 46.4782C8.58079 44.5851 8.44159 42.3023 10.4043 42.0796C11.4065 42.2049 11.2394 45.6013 11.1699 47.0628C11.1699 47.4387 11.1699 47.7449 11.1699 47.9258C11.1699 48.1068 11.1699 48.427 11.1699 48.8028C11.3185 49.8275 11.3185 50.8683 11.1699 51.893C10.8966 51.9864 10.6096 52.0334 10.3207 52.0322H10.0006C9.89548 52.0564 9.78826 52.0704 9.68044 52.0739ZM11.0724 19.2235C11.0724 19.5993 11.0724 19.9055 11.0724 20.0865C11.0724 20.2674 11.0724 20.5876 11.0724 20.9634C11.2211 21.9881 11.2211 23.0289 11.0724 24.0536C10.7991 24.147 10.5121 24.1941 10.2233 24.1928H9.90316C9.79208 24.2039 9.68016 24.2039 9.56908 24.1928C9.38813 24.1928 8.84526 24.1928 8.73391 23.0235C8.55987 22.1957 8.50828 21.3469 8.58079 20.5041C8.58079 20.1561 8.58079 19.822 8.58079 19.5297C8.58079 19.2374 8.58079 18.9311 8.58079 18.5971C8.46943 16.704 8.33023 14.4212 10.2929 14.1984C11.3786 14.3655 11.2116 17.7619 11.142 19.2235H11.0724Z" fill="#333333"/>
<path d="M49.5744 25.6401C48.9749 25.5126 48.3638 25.4473 47.7509 25.4452C46.2044 25.3475 44.6709 25.7815 43.4049 26.6753C42.139 27.569 41.2167 28.8688 40.7911 30.3588C40.4606 31.3902 40.3437 32.478 40.4474 33.556C40.5511 34.6341 40.8732 35.6797 41.3942 36.6291C41.9152 37.5786 42.6241 38.412 43.4776 39.0786C44.3312 39.7452 45.3115 40.2309 46.359 40.5063C47.1915 40.7496 48.0529 40.8807 48.9202 40.896C52.2887 40.896 54.6133 38.5575 55.4624 34.3259C56.3115 30.0943 54.0565 26.9763 49.5744 25.6401ZM53.7503 32.0849C53.6349 32.0799 53.5198 32.1011 53.4138 32.1469C53.3077 32.1927 53.2134 32.2619 53.1378 32.3494C53.0035 32.5092 52.9296 32.7112 52.9291 32.92C52.9232 33.0301 52.9403 33.1402 52.9793 33.2432C53.0183 33.3463 53.0784 33.4401 53.1556 33.5186C53.2329 33.5972 53.3257 33.6588 53.4281 33.6996C53.5304 33.7403 53.6402 33.7592 53.7503 33.7552H53.8756C53.7434 35.0277 53.3399 36.257 52.6924 37.3604C52.2468 37.945 51.6686 38.4152 51.0054 38.7323C50.3422 39.0493 49.6132 39.2041 48.8784 39.1839C48.8784 39.0725 48.8784 38.9612 48.8784 38.8498C48.8889 38.7463 48.8769 38.6417 48.8432 38.5432C48.8096 38.4447 48.7551 38.3546 48.6835 38.2791C48.606 38.1989 48.513 38.1353 48.4101 38.0922C48.3072 38.0492 48.1966 38.0275 48.085 38.0286C47.8621 38.021 47.6451 38.1014 47.481 38.2525C47.317 38.4035 47.2189 38.6131 47.2081 38.8359C47.2025 38.9007 47.2025 38.9659 47.2081 39.0308C47.038 39.0022 46.8705 38.9603 46.707 38.9055C45.5267 38.6111 44.4669 37.9574 43.674 37.0348C42.8811 36.1123 42.3942 34.9663 42.2805 33.7552H42.4614C42.5544 33.745 42.6444 33.7161 42.726 33.6703C42.8076 33.6245 42.8791 33.5628 42.9363 33.4887C42.9935 33.4146 43.0351 33.3298 43.0588 33.2393C43.0824 33.1487 43.0876 33.0543 43.0739 32.9618C43.0525 32.7512 42.9592 32.5546 42.8095 32.4049C42.6599 32.2553 42.4632 32.1619 42.2526 32.1405C42.2526 31.9874 42.2526 31.8343 42.2526 31.6673C42.4055 30.4878 42.9695 29.4 43.8453 28.5954C44.7212 27.7909 45.8528 27.321 47.041 27.2686V27.4775C47.041 27.699 47.129 27.9114 47.2856 28.068C47.4423 28.2246 47.6547 28.3126 47.8762 28.3126C48.0977 28.3126 48.3101 28.2246 48.4668 28.068C48.6234 27.9114 48.7114 27.699 48.7114 27.4775V27.3243C48.818 27.3166 48.925 27.3166 49.0315 27.3243C51.0777 27.9368 53.5415 29.2592 53.7921 32.1545L53.7503 32.0849Z" fill="#333333"/>
<path d="M34.0435 40.7844C34.0224 40.7893 34.0004 40.79 33.979 40.7863C33.9576 40.7826 33.9372 40.7747 33.9189 40.7629C33.8807 40.7347 33.8546 40.693 33.846 40.6463C33.8374 40.5995 33.8469 40.5512 33.8725 40.5112C34.9543 38.6272 36.186 36.8333 37.5557 35.147C37.583 35.1074 37.6248 35.0803 37.672 35.0716C37.7192 35.0629 37.7679 35.0733 37.8074 35.1005C37.8267 35.1135 37.8432 35.1302 37.856 35.1497C37.8687 35.1691 37.8775 35.1909 37.8817 35.2138C37.8859 35.2367 37.8855 35.2602 37.8805 35.2829C37.8756 35.3056 37.8661 35.3271 37.8527 35.3461C36.4759 37.0174 35.2396 38.7997 34.1566 40.6747C34.1476 40.7006 34.1327 40.724 34.1131 40.743C34.0935 40.7621 34.0696 40.7762 34.0435 40.7844Z" fill="black"/>
<path d="M33.5825 47.1138C33.5593 47.118 33.5355 47.1172 33.5126 47.1116C33.4897 47.106 33.4682 47.0956 33.4495 47.0812C33.41 47.0539 33.3829 47.0121 33.3742 46.9649C33.3655 46.9177 33.3759 46.869 33.4031 46.8295C35.4482 43.8051 37.5839 40.7894 39.7415 37.8585C39.7537 37.8354 39.7707 37.8153 39.7915 37.7994C39.8122 37.7835 39.8361 37.7723 39.8616 37.7665C39.8871 37.7608 39.9135 37.7606 39.9391 37.766C39.9646 37.7714 39.9887 37.7823 40.0097 37.7979C40.0306 37.8135 40.048 37.8335 40.0605 37.8564C40.073 37.8793 40.0804 37.9047 40.0822 37.9308C40.0839 37.9568 40.0801 37.983 40.0708 38.0074C40.0615 38.0318 40.0471 38.0539 40.0285 38.0722C37.8781 41.0081 35.7475 44.0165 33.7074 47.0336C33.6934 47.055 33.6751 47.0733 33.6535 47.0871C33.632 47.1009 33.6078 47.11 33.5825 47.1138Z" fill="black"/>
<path d="M34.1191 53.3628C34.098 53.3677 34.0761 53.3684 34.0547 53.3647C34.0333 53.361 34.0128 53.3531 33.9946 53.3413C33.955 53.3141 33.9279 53.2723 33.9192 53.2251C33.9105 53.1779 33.9209 53.1291 33.9481 53.0896C36.1873 49.293 38.6266 45.5484 41.1835 41.9599C41.2107 41.9204 41.2525 41.8933 41.2997 41.8846C41.3469 41.8759 41.3956 41.8863 41.4352 41.9135C41.4734 41.9417 41.4995 41.9835 41.5081 42.0302C41.5167 42.0769 41.5072 42.1252 41.4816 42.1652C38.9236 45.7476 36.4844 49.4922 34.2613 53.2731C34.2471 53.2988 34.2266 53.3205 34.2017 53.3362C34.1769 53.3518 34.1485 53.361 34.1191 53.3628Z" fill="black"/>
<path d="M40.0155 50.53C39.9728 50.5386 39.9284 50.531 39.891 50.5085C39.8527 50.4803 39.8266 50.4386 39.818 50.3919C39.8094 50.3451 39.8189 50.2968 39.8445 50.2568C41.1044 48.0096 42.536 45.863 44.1265 43.8362C44.1537 43.7967 44.1956 43.7696 44.2428 43.7609C44.29 43.7522 44.3387 43.7626 44.3783 43.7898C44.4165 43.818 44.4425 43.8598 44.4512 43.9065C44.4598 43.9533 44.4503 44.0015 44.4247 44.0415C42.848 46.0548 41.4285 48.1863 40.1789 50.4174C40.1656 50.45 40.143 50.478 40.114 50.4981C40.085 50.5181 40.0508 50.5292 40.0155 50.53Z" fill="black"/>
<path d="M45.7355 48.6051C45.688 48.6136 45.6389 48.6046 45.5975 48.5798C45.5593 48.5516 45.5332 48.5098 45.5246 48.4631C45.516 48.4164 45.5254 48.3681 45.5511 48.3281L47.6295 45.2087C47.6577 45.1704 47.6994 45.1444 47.7462 45.1358C47.7929 45.1271 47.8412 45.1366 47.8812 45.1622C47.9207 45.1895 47.9478 45.2313 47.9565 45.2785C47.9652 45.3257 47.9548 45.3744 47.9276 45.414L45.842 48.5284C45.8303 48.5476 45.8148 48.5643 45.7965 48.5775C45.7782 48.5907 45.7575 48.6001 45.7355 48.6051Z" fill="black"/>
<path d="M64.6908 4.928C64.6032 4.91463 64.514 4.91463 64.4263 4.928C64.2347 4.93737 64.053 5.01587 63.9148 5.14895C63.7766 5.28203 63.6913 5.46069 63.6747 5.65183C63.6355 5.85053 63.6724 6.05669 63.7781 6.22944C63.8838 6.40219 64.0506 6.52891 64.2454 6.58444C66.1106 7.16907 66.1385 10.2731 66.1524 12.3333C66.1524 12.7926 66.1524 13.1963 66.1524 13.5164C66.2777 15.5487 66.3334 17.6924 66.2916 20.1979C66.2857 20.4078 66.3604 20.6121 66.5004 20.7686C66.6654 20.9251 66.8855 21.0101 67.1129 21.0052C67.2219 21.009 67.3305 20.9909 67.4325 20.9522C67.5344 20.9134 67.6277 20.8548 67.7067 20.7796C67.7857 20.7045 67.849 20.6143 67.8928 20.5144C67.9367 20.4146 67.9602 20.307 67.962 20.1979C68.072 16.4443 67.8811 12.6879 67.3913 8.9647C67.1407 6.94634 66.57 5.52654 64.6908 4.928Z" fill="#333333"/>
<path d="M61.0858 5.81844C61.1948 5.8205 61.303 5.80008 61.4037 5.75848C61.5045 5.71687 61.5956 5.65496 61.6713 5.5766C61.7471 5.49824 61.8058 5.40512 61.844 5.30303C61.8822 5.20095 61.8989 5.09208 61.8932 4.98325C61.8975 4.86879 61.8775 4.75472 61.8344 4.64859C61.7913 4.54247 61.7261 4.44673 61.6432 4.36774C61.5602 4.28874 61.4614 4.2283 61.3533 4.19043C61.2452 4.15256 61.1303 4.13812 61.0162 4.14808C60.9072 4.14601 60.799 4.16641 60.6983 4.20801C60.5976 4.24962 60.5065 4.31155 60.4307 4.38991C60.355 4.46827 60.2962 4.5614 60.258 4.66348C60.2198 4.76557 60.2031 4.87441 60.2089 4.98325C60.2055 5.19035 60.2744 5.39216 60.4037 5.55396C60.4863 5.65146 60.592 5.72674 60.7111 5.77294C60.8303 5.81913 60.9591 5.83477 61.0858 5.81844Z" fill="#333333"/>
<path d="M51.0635 31.2641C51.1279 30.9618 51.1652 30.6544 51.1748 30.3455C51.1776 30.2337 51.1567 30.1225 51.1135 30.0194C51.0704 29.9162 51.0059 29.8234 50.9243 29.7469C50.7744 29.5916 50.5693 29.5016 50.3536 29.4963H50.103C49.8141 29.6028 49.5158 29.682 49.2122 29.733C49.0119 29.7604 48.8156 29.8118 48.6275 29.8861C48.3241 29.776 48.0038 29.7194 47.681 29.7191C47.0738 29.7175 46.4843 29.9238 46.0106 30.3037C45.313 30.8716 44.8234 31.6549 44.6187 32.5308C44.5491 33.0191 44.5933 33.5169 44.7478 33.9854C44.9024 34.4538 45.163 34.8802 45.5095 35.2312C45.8207 35.6285 46.2178 35.9501 46.671 36.1719C47.1243 36.3937 47.6218 36.5099 48.1264 36.5119C48.8521 36.513 49.5557 36.2621 50.1169 35.802C50.6575 35.3354 51.0343 34.7078 51.1921 34.0114C51.35 33.315 51.2805 32.5863 50.9939 31.9323C51.005 31.7085 51.0282 31.4854 51.0635 31.2641ZM49.4488 33.9089C49.3245 34.1793 49.1296 34.4111 48.8846 34.5802C48.6397 34.7492 48.3537 34.8491 48.0568 34.8694C47.7999 34.8636 47.5482 34.7961 47.3228 34.6726C47.0975 34.549 46.9053 34.373 46.7623 34.1594C46.6153 34.0017 46.5013 33.8162 46.4271 33.6137C46.353 33.4112 46.3201 33.196 46.3305 32.9806C46.3409 32.7652 46.3943 32.5541 46.4876 32.3598C46.5809 32.1654 46.7121 31.9916 46.8737 31.8488C47.1272 31.5898 47.4718 31.4401 47.8341 31.4312C48.069 31.4392 48.2986 31.5026 48.5042 31.6163C48.7098 31.73 48.8857 31.8908 49.0173 32.0854L49.1286 32.2246C49.3456 32.4403 49.4923 32.7166 49.5494 33.0172C49.6066 33.3178 49.5715 33.6286 49.4488 33.9089Z" fill="#333333"/>
</svg>
