<svg width="82" height="74" viewBox="0 0 82 74" fill="none" xmlns="http://www.w3.org/2000/svg">
<path d="M40.2449 72.0048C43.9173 71.6993 43.4948 65.3034 43.5598 62.1055C43.6248 57.5166 43.6941 52.9298 43.7678 48.3453C43.9758 34.4096 43.8977 21.0458 44.1057 7.08412C44.1057 5.60865 44.1058 4.03568 43.3908 2.8007C42.1298 0.694743 39.4193 0.519251 37.1184 0.57125C26.4391 0.811745 16.0523 0.51275 5.37304 0.753246C4.34606 0.753246 3.24761 0.82474 2.42862 1.50073C1.24565 2.48221 1.12865 4.34768 1.12865 5.96614L0.582643 65.1149C0.582643 67.2794 0.34864 70.3148 2.4026 71.2703C6.24402 73.0708 33.732 72.5443 40.2449 72.0048Z" fill="#F35A05"/>
<path d="M7.15398 7.34446L38.8669 7.08447V65.8043L6.19202 65.7328L7.15398 7.34446Z" fill="white"/>
<path d="M59.8677 21.5791C64.1647 21.5791 67.6481 18.0084 67.6481 13.6038C67.6481 9.1991 64.1647 5.62842 59.8677 5.62842C55.5708 5.62842 52.0874 9.1991 52.0874 13.6038C52.0874 18.0084 55.5708 21.5791 59.8677 21.5791Z" fill="white"/>
<path d="M59.8681 22.1313C58.1737 22.1701 56.5062 21.703 55.0784 20.7899C53.6506 19.8767 52.5272 18.5588 51.8518 17.0043C51.1763 15.4499 50.9794 13.7294 51.286 12.0625C51.5927 10.3957 52.3892 8.85799 53.5737 7.64576C54.7582 6.43354 56.277 5.60177 57.9364 5.2566C59.5957 4.91144 61.3202 5.06854 62.8899 5.70786C64.4595 6.34719 65.8031 7.43972 66.7491 8.84603C67.6951 10.2523 68.2005 11.9086 68.2009 13.6035C68.2218 15.8379 67.3567 17.9895 65.7951 19.5877C64.2334 21.1859 62.1023 22.1005 59.8681 22.1313ZM59.8681 6.18064C58.3923 6.14185 56.9385 6.54401 55.6924 7.33571C54.4464 8.12741 53.4647 9.27269 52.8729 10.6252C52.281 11.9776 52.1059 13.4759 52.3699 14.9284C52.6339 16.3809 53.3251 17.7217 54.355 18.7794C55.3849 19.8371 56.7068 20.5636 58.1518 20.8662C59.5967 21.1688 61.0991 21.0336 62.4668 20.478C63.8346 19.9223 65.0056 18.9715 65.8301 17.7469C66.6547 16.5224 67.0954 15.0798 67.0959 13.6035C67.1202 11.6611 66.3727 9.78852 65.0176 8.3968C63.6624 7.00509 61.8104 6.20804 59.8681 6.18064Z" fill="black"/>
<path fill-rule="evenodd" clip-rule="evenodd" d="M57.3965 8.53948C56.936 8.84038 56.8645 9.20849 57.119 9.96801C57.2227 10.2776 57.3075 10.5958 57.3075 10.675C57.3075 10.7543 57.3312 10.8342 57.3601 10.8527C57.4392 10.9033 57.7994 12.0037 57.8289 12.285C57.8388 12.3797 57.9818 12.9042 58.1117 13.3219C58.2997 13.9265 58.5805 15.274 58.6272 15.795L58.6613 16.1765L58.0972 16.218C57.7868 16.2408 57.3586 16.2594 57.1455 16.2594C56.8404 16.2594 56.7323 16.2861 56.6369 16.3848C56.5356 16.4896 56.5269 16.5358 56.5841 16.6657C56.7028 16.9353 57.0595 17.0357 58.0096 17.067C58.5519 17.0849 58.8808 17.1214 58.9092 17.1669C59.0047 17.3196 58.9576 17.5201 58.8186 17.5528C58.743 17.5706 58.4228 17.6433 58.107 17.7143C57.4461 17.8629 57.4296 17.8704 57.4296 18.0243C57.4296 18.2596 57.5583 18.2858 58.2293 18.1871C59.0101 18.0723 59.137 18.07 59.1648 18.1704C59.2905 18.624 59.4047 18.8495 59.5089 18.8495C59.6535 18.8495 59.8005 18.5645 59.8505 18.1873C59.8713 18.0303 59.8936 17.9019 59.9002 17.9019C59.9067 17.9019 60.212 17.8455 60.5787 17.7765C60.9453 17.7076 61.3337 17.6507 61.4416 17.6502C61.6799 17.649 61.8171 17.4574 61.67 17.3311C61.5574 17.2343 61.0211 17.2371 60.3542 17.338C59.9409 17.4006 59.8493 17.3985 59.8048 17.3258C59.6638 17.0954 59.7788 17.0015 60.3299 16.8971C60.8119 16.8058 62.1914 16.3318 62.299 16.2205C62.3455 16.1724 62.4328 16.1331 62.493 16.1331C62.6689 16.1331 63.6689 15.5932 64.0681 15.2827C64.7182 14.777 64.9965 14.2736 64.9986 13.5992C64.9997 13.2506 64.9673 13.1158 64.8016 12.7822C64.4956 12.1663 63.8523 11.5031 62.8906 10.8121C62.2784 10.3723 60.837 9.57881 59.9938 9.21739C59.7755 9.12383 59.4596 8.98119 59.2917 8.90039C58.4102 8.47612 57.7003 8.341 57.3965 8.53948ZM59.8274 10.1996C60.3287 10.4054 60.8665 10.6426 61.0226 10.7268C61.4318 10.9478 62.0624 11.3053 62.337 11.4722C62.4673 11.5514 62.6623 11.6641 62.7703 11.7227C63.0493 11.8741 63.9617 12.8146 63.9641 12.9533C63.9651 13.017 64.0063 13.1244 64.0556 13.1918C64.1794 13.3612 64.1677 13.6307 64.0246 13.9087C63.8155 14.3146 63.599 14.5101 62.9853 14.8474C62.4505 15.1412 61.9888 15.3236 60.7846 15.7164C60.4109 15.8384 59.7598 15.9575 59.6947 15.9159C59.6658 15.8974 59.6234 15.6047 59.6006 15.2654C59.5435 14.4201 59.4009 13.6483 59.0253 12.1532C58.6303 10.581 58.5425 10.2172 58.5016 9.98166L58.4591 9.73693L58.6875 9.78121C58.8131 9.8056 59.326 9.99391 59.8274 10.1996Z" fill="black"/>
<path d="M21.4536 73.0644C12.8348 73.0644 4.25499 72.7524 2.14903 71.7645C-0.0739202 70.7245 -0.0284464 67.7671 0.0105528 65.6026V65.1021L0.550053 5.9533C0.550053 4.04884 0.764526 2.14438 2.071 1.0654C3.06548 0.239915 4.38498 0.207422 5.35347 0.187922C10.6964 0.0644249 16.0522 0.0839249 21.2326 0.0969246C26.413 0.109924 31.7624 0.096925 37.0988 0.00592686C39.6988 -0.0460721 42.4807 0.20092 43.8586 2.50187C44.6971 3.91884 44.6712 5.67381 44.6517 7.05178C44.5477 14.0196 44.5152 20.9615 44.4827 27.6824C44.4502 34.4032 44.4177 41.3321 44.3137 48.3194L44.1056 62.0732C44.1056 62.3982 44.1056 62.7232 44.1056 63.1261C44.1056 66.7401 44.1056 72.226 40.2902 72.512C37.2938 72.8305 29.3575 73.0644 21.4536 73.0644ZM15.9027 1.2019C12.4253 1.2019 8.90238 1.2019 5.37945 1.3059C4.33947 1.3059 3.42949 1.3904 2.7795 1.92339C1.82402 2.72287 1.68104 4.34133 1.66154 5.9728L1.10903 65.6286C1.10903 67.5786 1.04404 70.0355 2.61701 70.77C6.25693 72.4664 33.1209 72.0375 40.1992 71.4525C42.9942 71.2185 43.0007 66.3696 43.0007 63.1651C43.0007 62.7817 43.0007 62.4241 43.0007 62.0992L43.2086 48.3389C43.3126 41.3776 43.3452 34.4292 43.3777 27.7149C43.4102 21.0005 43.4427 14.0651 43.5467 7.07778C43.5467 5.7778 43.5922 4.22434 42.8967 3.08036C41.8112 1.2669 39.3607 1.0719 37.1118 1.1304C31.7624 1.2539 26.4 1.2344 21.2196 1.2214L15.9027 1.2019Z" fill="black"/>
<path d="M56.5141 33.5906L56.4426 42.1379L70.8463 42.2094L71.1258 47.6303L81.4476 37.5035L71.1973 27.9617L70.8463 33.4541L56.5141 33.5906Z" fill="white"/>
<path d="M71.1257 48.1829C71.0567 48.1826 70.9884 48.1694 70.9242 48.1439C70.8254 48.1045 70.7399 48.0377 70.6777 47.9514C70.6155 47.865 70.5793 47.7627 70.5733 47.6565L70.3263 42.7556L56.4426 42.6906C56.37 42.6907 56.2982 42.6765 56.2312 42.6486C56.1642 42.6207 56.1035 42.5797 56.0525 42.5281C55.9494 42.4243 55.8911 42.2843 55.89 42.1381L55.9615 33.5908C55.9615 33.4453 56.0189 33.3058 56.1211 33.2024C56.2233 33.0989 56.3621 33.04 56.5075 33.0383L70.3328 32.9083L70.6448 27.9294C70.6534 27.8258 70.6907 27.7267 70.7525 27.6431C70.8144 27.5596 70.8983 27.495 70.9948 27.4565C71.0914 27.418 71.1968 27.4072 71.2991 27.4253C71.4015 27.4434 71.4967 27.4896 71.5742 27.5589L81.8245 37.0812C81.9328 37.1852 81.9958 37.3276 82 37.4777C82.0006 37.5518 81.9859 37.6253 81.9569 37.6935C81.9278 37.7617 81.8849 37.8232 81.831 37.8742L71.5157 48.0009C71.4148 48.1106 71.2746 48.1761 71.1257 48.1829ZM57.0015 41.5921L70.8527 41.6571C70.9937 41.6586 71.1288 41.7139 71.2303 41.8118C71.3318 41.9097 71.3921 42.0427 71.3987 42.1836L71.6132 46.376L80.6481 37.5102L71.6717 29.1643L71.3987 33.4868C71.3905 33.6265 71.3295 33.7578 71.2282 33.8544C71.1268 33.9509 70.9927 34.0053 70.8527 34.0067L57.06 34.1367L57.0015 41.5921Z" fill="black"/>
<path d="M38.8603 66.3305L6.19197 66.285C6.11844 66.2853 6.04558 66.2712 5.97754 66.2433C5.90951 66.2154 5.84764 66.1744 5.79549 66.1225C5.74329 66.071 5.70246 66.009 5.6756 65.9408C5.64873 65.8725 5.63643 65.7994 5.6395 65.726L6.60146 7.33773C6.60315 7.19344 6.66122 7.05554 6.76325 6.95351C6.86528 6.85148 7.00315 6.79342 7.14743 6.79173L38.8603 6.53174C39.0068 6.53174 39.1474 6.58995 39.251 6.69356C39.3546 6.79717 39.4128 6.9377 39.4128 7.08423V65.804C39.4117 65.9503 39.3534 66.0903 39.2503 66.194C39.1432 66.2889 39.0032 66.3379 38.8603 66.3305ZM6.75095 65.1606L38.3144 65.2255V7.64322L7.69344 7.89021L6.75095 65.1606Z" fill="black"/>
<path d="M19.2372 4.62733C19.1005 4.61926 18.9717 4.5607 18.8757 4.46302C18.7797 4.36533 18.7234 4.23549 18.7178 4.09866C18.7121 3.96183 18.7575 3.82777 18.845 3.72249C18.9326 3.6172 19.0561 3.54819 19.1917 3.52885C21.882 3.28854 24.5848 3.2169 27.2841 3.31435C27.3569 3.316 27.4287 3.33222 27.4952 3.36204C27.5616 3.39186 27.6215 3.43468 27.6711 3.48799C27.7208 3.54129 27.7593 3.604 27.7844 3.67241C27.8094 3.74083 27.8205 3.81356 27.8171 3.88633C27.8163 3.9586 27.8009 4.02997 27.7717 4.09608C27.7425 4.16219 27.7002 4.22168 27.6473 4.27092C27.5944 4.32017 27.532 4.35815 27.464 4.38254C27.396 4.40694 27.3237 4.41724 27.2516 4.41283C24.5934 4.32189 21.9322 4.39352 19.2827 4.62733H19.2372Z" fill="black"/>
<path d="M9.22735 23.1975C9.19776 23.207 9.16598 23.207 9.13638 23.1975C9.09418 23.1742 9.06295 23.1351 9.04954 23.0888C9.03614 23.0425 9.04163 22.9928 9.06486 22.9505C11.7525 18.2014 14.8727 13.7105 18.3857 9.53481C18.4167 9.49688 18.4615 9.47283 18.5103 9.46796C18.5591 9.46308 18.6077 9.47778 18.6457 9.50881C18.6836 9.53984 18.7076 9.58466 18.7125 9.63342C18.7174 9.68218 18.7027 9.73088 18.6717 9.7688C15.171 13.9267 12.0637 18.4004 9.38985 23.1325C9.3697 23.1553 9.34451 23.173 9.3163 23.1843C9.28808 23.1956 9.25763 23.2001 9.22735 23.1975Z" fill="black"/>
<path d="M9.82552 29.0733C9.78847 29.0726 9.75237 29.0613 9.7215 29.0408C9.68139 29.0121 9.65415 28.9687 9.64565 28.9201C9.63714 28.8715 9.64803 28.8215 9.67599 28.7808L23.0917 9.52173C23.1193 9.48208 23.1615 9.455 23.209 9.44647C23.2566 9.43794 23.3056 9.44864 23.3452 9.47622C23.3849 9.5038 23.412 9.546 23.4205 9.59354C23.429 9.64108 23.4183 9.69007 23.3907 9.72972L9.96199 28.9953C9.94687 29.018 9.92665 29.0369 9.90296 29.0505C9.87926 29.064 9.85277 29.0718 9.82552 29.0733Z" fill="black"/>
<path d="M9.0324 35.2028C8.99334 35.2019 8.95523 35.1907 8.92191 35.1703C8.88416 35.1397 8.85923 35.096 8.85201 35.0479C8.8448 34.9998 8.85582 34.9507 8.88292 34.9103L27.804 9.07986L27.8885 8.98236C27.9055 8.96507 27.9257 8.95133 27.948 8.94195C27.9704 8.93257 27.9943 8.92773 28.0185 8.92773C28.0427 8.92773 28.0667 8.93257 28.089 8.94195C28.1113 8.95133 28.1316 8.96507 28.1485 8.98236C28.1658 8.99931 28.1795 9.01953 28.1889 9.04185C28.1983 9.06417 28.2031 9.08815 28.2031 9.11236C28.2031 9.13657 28.1983 9.16054 28.1889 9.18287C28.1795 9.20519 28.1658 9.22541 28.1485 9.24235L28.09 9.32035L9.18188 35.1313C9.16375 35.1535 9.14095 35.1714 9.11512 35.1838C9.08928 35.1961 9.06104 35.2026 9.0324 35.2028Z" fill="black"/>
<path d="M9.64999 42.3722C9.61261 42.3737 9.57586 42.3622 9.54597 42.3397C9.5256 42.3267 9.50816 42.3096 9.49471 42.2895C9.48127 42.2694 9.47213 42.2467 9.46785 42.2229C9.46358 42.1991 9.46426 42.1747 9.46988 42.1512C9.47549 42.1276 9.48594 42.1055 9.5005 42.0862C17.0988 30.835 25.1912 19.6942 33.55 8.98889C33.5795 8.95126 33.6226 8.92675 33.6701 8.92067C33.7175 8.91459 33.7654 8.92742 33.8035 8.95639C33.8208 8.97334 33.8345 8.99357 33.8439 9.01589C33.8533 9.03821 33.8581 9.06218 33.8581 9.08639C33.8581 9.1106 33.8533 9.13457 33.8439 9.1569C33.8345 9.17922 33.8208 9.19945 33.8035 9.21639C25.4511 19.9152 17.3588 31.0429 9.75397 42.2942C9.73056 42.3326 9.69336 42.3605 9.64999 42.3722Z" fill="black"/>
<path d="M9.92305 48.6639C9.88588 48.6639 9.8496 48.6526 9.81907 48.6314C9.77922 48.6026 9.75171 48.5598 9.74207 48.5116C9.73243 48.4634 9.74136 48.4133 9.76706 48.3714C18.2949 36.1646 27.3167 24.0294 36.4815 12.3036C36.4962 12.284 36.5146 12.2676 36.5358 12.2553C36.5569 12.243 36.5804 12.2352 36.6046 12.2321C36.6289 12.2291 36.6535 12.231 36.677 12.2377C36.7005 12.2444 36.7225 12.2557 36.7415 12.2711C36.7749 12.3061 36.7935 12.3527 36.7935 12.4011C36.7935 12.4495 36.7749 12.4961 36.7415 12.5311C27.5442 24.2309 18.5419 36.3791 10.04 48.5859C10.0267 48.606 10.0095 48.6232 9.98938 48.6366C9.9693 48.65 9.94675 48.6593 9.92305 48.6639Z" fill="black"/>
<path d="M10.0203 56.4377C9.98836 56.446 9.9548 56.446 9.92282 56.4377C9.90266 56.4246 9.88531 56.4076 9.87177 56.3877C9.85822 56.3678 9.84875 56.3454 9.84392 56.3218C9.83908 56.2982 9.83898 56.2739 9.8436 56.2503C9.84822 56.2267 9.85745 56.2042 9.87081 56.1842C18.0931 43.4965 27.05 31.0752 36.4878 19.2585C36.5042 19.2414 36.5238 19.2277 36.5456 19.2184C36.5674 19.2091 36.5909 19.2043 36.6146 19.2043C36.6383 19.2043 36.6617 19.2091 36.6834 19.2184C36.7052 19.2277 36.7249 19.2414 36.7413 19.2585C36.7586 19.2754 36.7723 19.2956 36.7817 19.318C36.7911 19.3403 36.7959 19.3643 36.7959 19.3885C36.7959 19.4127 36.7911 19.4366 36.7817 19.459C36.7723 19.4813 36.7586 19.5015 36.7413 19.5185C27.31 31.3222 18.3597 43.7305 10.1438 56.4117C10.1071 56.4348 10.0633 56.4441 10.0203 56.4377Z" fill="black"/>
<path d="M10.8589 62.4892C10.8271 62.4984 10.7933 62.4984 10.7615 62.4892C10.7413 62.4761 10.7239 62.459 10.7104 62.4392C10.6968 62.4193 10.6874 62.3969 10.6826 62.3733C10.6777 62.3497 10.6776 62.3254 10.6822 62.3018C10.6868 62.2782 10.6961 62.2557 10.7095 62.2357C18.4315 50.7782 26.7565 39.7389 35.6494 29.1644C35.6648 29.146 35.6837 29.1309 35.7049 29.1198C35.7261 29.1087 35.7493 29.1019 35.7731 29.0998C35.7969 29.0977 35.821 29.1003 35.8438 29.1075C35.8666 29.1147 35.8878 29.1263 35.9062 29.1416C35.9245 29.157 35.9397 29.1758 35.9508 29.197C35.9618 29.2182 35.9686 29.2414 35.9708 29.2653C35.9729 29.2891 35.9702 29.3131 35.9631 29.336C35.9559 29.3588 35.9443 29.38 35.9289 29.3984C27.0485 39.9628 18.7322 50.989 11.0149 62.4307C10.9946 62.451 10.9702 62.4667 10.9433 62.4768C10.9164 62.4869 10.8876 62.4911 10.8589 62.4892Z" fill="black"/>
<path d="M14.3102 62.9831C14.2707 62.9856 14.2316 62.9741 14.1997 62.9506C14.1797 62.9365 14.1627 62.9184 14.1498 62.8975C14.1369 62.8766 14.1283 62.8533 14.1247 62.829C14.1211 62.8047 14.1224 62.7799 14.1285 62.7561C14.1347 62.7323 14.1457 62.7101 14.1607 62.6906C21.0571 53.4348 28.2524 44.2115 35.5453 35.2807C35.5622 35.2634 35.5825 35.2497 35.6048 35.2403C35.6271 35.2309 35.6511 35.2261 35.6753 35.2261C35.6995 35.2261 35.7235 35.2309 35.7458 35.2403C35.7681 35.2497 35.7884 35.2634 35.8053 35.2807C35.8387 35.3158 35.8573 35.3623 35.8573 35.4107C35.8573 35.4591 35.8387 35.5056 35.8053 35.5407C28.5125 44.465 21.3236 53.6818 14.4272 62.9376C14.4117 62.9526 14.3934 62.9643 14.3733 62.9721C14.3532 62.9799 14.3317 62.9837 14.3102 62.9831Z" fill="black"/>
<path d="M19.3934 62.5348C19.3531 62.5348 19.3142 62.521 19.2829 62.4958C19.2451 62.4651 19.2202 62.4214 19.213 62.3733C19.2058 62.3252 19.2168 62.2762 19.2439 62.2358C24.4468 55.2463 29.996 48.5214 35.8706 42.0862C35.9056 42.0528 35.9521 42.0342 36.0005 42.0342C36.0489 42.0342 36.0955 42.0528 36.1306 42.0862C36.1479 42.1031 36.1616 42.1234 36.1709 42.1457C36.1803 42.168 36.1852 42.192 36.1852 42.2162C36.1852 42.2404 36.1803 42.2644 36.1709 42.2867C36.1616 42.309 36.1479 42.3292 36.1306 42.3462C30.2636 48.7809 24.723 55.5059 19.5299 62.4958C19.5109 62.5111 19.489 62.5224 19.4656 62.5291C19.4421 62.5358 19.4176 62.5377 19.3934 62.5348Z" fill="black"/>
<path d="M23.3257 62.8597C23.2855 62.8597 23.2465 62.846 23.2152 62.8207C23.1766 62.7921 23.1508 62.7495 23.1435 62.702C23.1362 62.6545 23.1479 62.606 23.1762 62.5672C27.0073 57.3549 31.1305 52.3636 35.526 47.6175C35.5613 47.5896 35.6053 47.5753 35.6503 47.5771C35.6952 47.5788 35.7381 47.5967 35.771 47.6273C35.804 47.6579 35.825 47.6993 35.8301 47.744C35.8352 47.7887 35.8242 47.8337 35.799 47.871C31.4003 52.6143 27.2769 57.6057 23.4492 62.8207C23.4142 62.8484 23.3702 62.8623 23.3257 62.8597Z" fill="black"/>
<path d="M27.5896 62.8338C27.567 62.8348 27.5445 62.8313 27.5233 62.8235C27.5021 62.8157 27.4826 62.8037 27.4661 62.7883C27.4488 62.7713 27.4351 62.7511 27.4257 62.7288C27.4164 62.7064 27.4115 62.6825 27.4115 62.6583C27.4115 62.6341 27.4164 62.6101 27.4257 62.5878C27.4351 62.5654 27.4488 62.5452 27.4661 62.5283L35.578 53.4285C35.5944 53.4103 35.6145 53.3958 35.6369 53.3859C35.6593 53.376 35.6835 53.3708 35.708 53.3708C35.7325 53.3708 35.7567 53.376 35.7791 53.3859C35.8015 53.3958 35.8215 53.4103 35.838 53.4285C35.8709 53.4624 35.8894 53.5079 35.8894 53.5552C35.8894 53.6025 35.8709 53.648 35.838 53.682L27.7261 62.7818C27.708 62.7991 27.6866 62.8126 27.6631 62.8215C27.6397 62.8305 27.6147 62.8346 27.5896 62.8338Z" fill="black"/>
<path d="M31.7559 62.9831C31.7107 62.9827 31.667 62.9666 31.6324 62.9376C31.6151 62.9206 31.6013 62.9004 31.592 62.8781C31.5826 62.8558 31.5778 62.8318 31.5778 62.8076C31.5778 62.7833 31.5826 62.7594 31.592 62.7371C31.6013 62.7147 31.6151 62.6945 31.6324 62.6776L35.5323 58.4527C35.5485 58.4347 35.5681 58.4202 35.5899 58.4098C35.6118 58.3995 35.6354 58.3935 35.6596 58.3923C35.6837 58.3911 35.7079 58.3947 35.7307 58.4028C35.7534 58.4109 35.7744 58.4234 35.7923 58.4396C35.8102 58.4559 35.8248 58.4755 35.8352 58.4973C35.8455 58.5192 35.8514 58.5428 35.8526 58.567C35.8538 58.5911 35.8503 58.6152 35.8421 58.638C35.834 58.6608 35.8215 58.6817 35.8053 58.6997L31.9054 62.9246C31.8869 62.9455 31.8637 62.9617 31.8377 62.9719C31.8117 62.9821 31.7837 62.9859 31.7559 62.9831Z" fill="black"/>
<path d="M9.03229 15.3913C8.99747 15.3894 8.96379 15.3781 8.93478 15.3588C8.89433 15.3321 8.86569 15.2909 8.8548 15.2437C8.84391 15.1965 8.85161 15.147 8.8763 15.1053C10.214 13.0002 11.8594 11.1072 13.7577 9.48941C13.7755 9.47274 13.7964 9.45981 13.8193 9.45139C13.8422 9.44297 13.8665 9.43923 13.8909 9.44039C13.9152 9.44156 13.9391 9.44759 13.961 9.45816C13.983 9.46872 14.0026 9.48359 14.0188 9.50187C14.0349 9.52016 14.0471 9.5415 14.0548 9.56463C14.0625 9.58775 14.0655 9.61218 14.0636 9.63648C14.0617 9.66078 14.0549 9.68445 14.0437 9.70608C14.0324 9.72771 14.017 9.74686 13.9982 9.7624C12.1303 11.3607 10.5093 13.2269 9.18828 15.3003C9.17245 15.3277 9.14975 15.3505 9.12239 15.3665C9.09503 15.3825 9.06397 15.391 9.03229 15.3913Z" fill="black"/>
<g opacity="0.13">
<path d="M67.4729 13.9871C67.3871 13.8436 67.2698 13.7215 67.1299 13.6299C66.99 13.5384 66.8312 13.4797 66.6653 13.4584C66.4995 13.4372 66.3309 13.4538 66.1725 13.5071C66.014 13.5604 65.8697 13.6489 65.7504 13.7661C65.4124 14.1106 65.3994 14.6371 65.1784 15.0661C65.2174 14.9686 65.3539 14.6566 65.2369 14.9166C65.0025 15.4176 64.7195 15.8944 64.392 16.34C64.1665 16.6023 63.9138 16.8398 63.638 17.0485C62.78 17.6985 61.246 18.797 59.738 18.9985L59.0881 19.07C58.2951 19.2325 57.3201 19.0115 56.6766 19.59C56.5068 19.766 56.3921 19.9878 56.3466 20.2282C56.3012 20.4686 56.3271 20.717 56.421 20.9428C56.5149 21.1687 56.6728 21.3622 56.8753 21.4994C57.0778 21.6367 57.316 21.7118 57.5606 21.7154C60.0631 21.4164 61.246 21.7544 63.573 20.266C64.3572 19.806 65.0819 19.2516 65.7309 18.615C66.3784 17.8646 66.877 16.9976 67.1999 16.0606L67.0894 16.3335C67.2909 15.6316 67.8694 14.7216 67.4729 13.9871Z" fill="black"/>
</g>
<g opacity="0.13">
<path d="M81.2136 37.341C81.2167 37.1557 81.1702 36.973 81.0789 36.8117C80.9876 36.6505 80.8549 36.5165 80.6946 36.4237C80.5342 36.3309 80.3519 36.2827 80.1666 36.284C79.9813 36.2852 79.7997 36.336 79.6406 36.431C79.5032 36.5154 79.3857 36.6284 79.2961 36.7625L79.1271 36.9315C78.4237 37.4573 77.757 38.0307 77.1317 38.6474C75.7862 40.0514 74.3757 41.3904 73.0302 42.7944C73.0131 42.2713 72.9076 41.7548 72.7183 41.2669C72.696 41.1144 72.6438 40.9677 72.5647 40.8354C72.4856 40.7031 72.3812 40.5877 72.2574 40.4959C72.1336 40.4041 71.9928 40.3377 71.8433 40.3005C71.6937 40.2632 71.5382 40.2559 71.3858 40.2789C70.7358 39.8369 69.6828 39.9474 68.9028 39.8824C66.2054 39.7979 63.5145 39.8824 60.8235 39.8369C60.1216 39.8369 59.4196 39.8889 58.7176 39.8369C58.2239 39.7591 57.7195 39.7835 57.2356 39.9084C56.9752 40.0189 56.7608 40.2158 56.6288 40.466C56.4967 40.7162 56.455 41.0043 56.5108 41.2816C56.5666 41.5589 56.7164 41.8085 56.9349 41.9882C57.1534 42.1679 57.4272 42.2667 57.7101 42.2679C60.492 42.6254 63.274 42.3914 66.0624 42.3264C67.2129 42.3719 68.3698 42.2874 69.5268 42.2874C69.8854 42.2887 70.2436 42.3126 70.5993 42.3589C70.5993 42.4044 70.5993 42.4434 70.5993 42.4889V42.5994C70.5603 43.2818 70.3848 43.5223 70.2678 45.0628C70.2123 45.2653 70.2068 45.4782 70.2516 45.6834C70.2964 45.8885 70.3902 46.0797 70.5249 46.2407C70.6597 46.4017 70.8315 46.5276 71.0255 46.6077C71.2196 46.6879 71.4302 46.7198 71.6393 46.7008C71.8367 46.773 72.051 46.7857 72.2555 46.7371C72.4601 46.6886 72.6458 46.581 72.7897 46.4278C73.7712 45.2318 74.9023 44.1658 75.9357 43.0154C76.9692 41.8649 78.0742 40.6169 79.2246 39.4924C79.6796 39.0591 80.1476 38.6366 80.6286 38.225C80.7948 38.1414 80.9361 38.0159 81.0388 37.8608C81.1414 37.7058 81.2017 37.5265 81.2136 37.341Z" fill="black"/>
</g>
<g opacity="0.13">
<path d="M39.3413 7.71474C39.1008 6.88926 38.3274 6.79175 37.5864 6.92825C34.7849 7.12325 31.9769 7.09075 29.169 7.16225C25.0806 7.40924 20.9922 7.61723 16.8972 7.60423C15.5388 7.57173 14.1868 7.68223 12.8284 7.60423L13.1208 7.64324C11.5479 7.47424 9.97491 7.40924 8.39544 7.35724C8.23304 7.27727 8.05287 7.24024 7.87209 7.24969C7.69131 7.25914 7.51596 7.31476 7.36278 7.41123C7.2096 7.5077 7.0837 7.6418 6.99708 7.80076C6.91046 7.95971 6.86598 8.13821 6.86795 8.31922C6.93945 11.8097 6.58197 15.2806 6.51697 18.7645C6.38697 25.9469 6.31546 33.1292 6.13997 40.3051C6.01647 42.5345 6.28947 44.01 6.23097 46.7659C6.23097 48.6704 6.11396 50.5749 6.05547 52.4728C6.12696 54.2798 6.11397 54.4878 6.14647 56.1843C6.21998 56.7533 6.32632 57.3175 6.46496 57.8742C6.51174 58.504 6.46355 59.1372 6.32198 59.7527C6.12058 61.0316 5.98824 62.3204 5.9255 63.6136C5.802 64.9136 5.5355 66.2136 7.05647 66.389C8.12895 66.311 8.29793 65.4986 8.25893 64.5821C8.21993 63.6656 8.34345 62.8466 8.32395 61.9821C8.32395 60.8837 8.43441 59.7917 8.44741 58.6997C8.35256 57.2605 8.35256 55.8165 8.44741 54.3773C8.50591 53.6233 8.44741 52.8693 8.44741 52.1218C8.54491 50.3474 8.61642 48.5729 8.61642 46.7985C8.69441 43.8605 8.57092 42.4305 8.46042 39.9151C8.53192 37.1396 8.46042 34.3642 8.46042 31.5887C8.59692 28.0268 8.46045 24.4389 8.60344 20.9095C8.68144 17.1785 8.8634 13.4411 8.9349 9.71019C11.0279 9.74919 13.1208 9.91169 15.2138 9.81419C16.8128 9.7362 18.4052 9.81419 20.0042 9.76219C21.8242 9.70369 23.6506 9.57369 25.4771 9.57369C28.4843 9.53036 31.4938 9.4892 34.5054 9.4502C35.8054 9.4112 37.6253 9.1707 38.0348 9.1902C38.2291 9.22238 38.4284 9.2047 38.614 9.13885C38.7996 9.07299 38.9654 8.96111 39.096 8.81366C39.2265 8.66622 39.3175 8.48806 39.3604 8.29586C39.4033 8.10365 39.3968 7.9037 39.3413 7.71474Z" fill="black"/>
</g>
</svg>
